<mxfile host="app.diagrams.net" agent="Mozilla/5.0 (Windows NT 10.0; Win64; x64) AppleWebKit/537.36 (KHTML, like Gecko) Chrome/138.0.0.0 Safari/537.36 Edg/138.0.0.0" version="28.0.7">
  <diagram name="Page-1" id="bSF4HvSEDuYQjHe-bw8m">
    <mxGraphModel dx="2243" dy="724" grid="1" gridSize="10" guides="1" tooltips="1" connect="1" arrows="1" fold="1" page="1" pageScale="1" pageWidth="850" pageHeight="1100" math="0" shadow="0">
      <root>
        <mxCell id="0" />
        <mxCell id="1" parent="0" />
        <mxCell id="XVonSXxWwofTlVb_7_li-2" value="" style="shape=cylinder3;whiteSpace=wrap;html=1;boundedLbl=1;backgroundOutline=1;size=15;" vertex="1" parent="1">
          <mxGeometry x="-95" y="425" width="70" height="95" as="geometry" />
        </mxCell>
        <mxCell id="XVonSXxWwofTlVb_7_li-3" value="News API" style="text;html=1;align=center;verticalAlign=middle;resizable=0;points=[];autosize=1;strokeColor=none;fillColor=none;" vertex="1" parent="1">
          <mxGeometry x="-100" y="470" width="80" height="30" as="geometry" />
        </mxCell>
        <mxCell id="XVonSXxWwofTlVb_7_li-4" value="" style="endArrow=classic;html=1;rounded=0;labelBackgroundColor=light-dark(default, #cb2a2a);" edge="1" parent="1" source="XVonSXxWwofTlVb_7_li-90">
          <mxGeometry width="50" height="50" relative="1" as="geometry">
            <mxPoint x="-15" y="478" as="sourcePoint" />
            <mxPoint x="185" y="477.5" as="targetPoint" />
            <Array as="points" />
          </mxGeometry>
        </mxCell>
        <mxCell id="XVonSXxWwofTlVb_7_li-5" value="" style="rounded=0;whiteSpace=wrap;html=1;labelBackgroundColor=light-dark(#000000,#FFFFFF);fontStyle=1" vertex="1" parent="1">
          <mxGeometry x="190" y="245" width="780" height="435" as="geometry" />
        </mxCell>
        <mxCell id="XVonSXxWwofTlVb_7_li-9" value="" style="swimlane;startSize=0;" vertex="1" parent="1">
          <mxGeometry x="220" y="360" width="130" height="230" as="geometry">
            <mxRectangle x="220" y="360" width="50" height="40" as="alternateBounds" />
          </mxGeometry>
        </mxCell>
        <mxCell id="XVonSXxWwofTlVb_7_li-11" value="" style="rounded=0;whiteSpace=wrap;html=1;" vertex="1" parent="XVonSXxWwofTlVb_7_li-9">
          <mxGeometry x="10" y="25" width="100" height="35" as="geometry" />
        </mxCell>
        <mxCell id="XVonSXxWwofTlVb_7_li-13" value="" style="rounded=0;whiteSpace=wrap;html=1;" vertex="1" parent="XVonSXxWwofTlVb_7_li-9">
          <mxGeometry x="10" y="165" width="100" height="35" as="geometry" />
        </mxCell>
        <mxCell id="XVonSXxWwofTlVb_7_li-14" value="Producer" style="text;html=1;align=center;verticalAlign=middle;resizable=0;points=[];autosize=1;strokeColor=none;fillColor=none;" vertex="1" parent="XVonSXxWwofTlVb_7_li-9">
          <mxGeometry x="25" y="27.5" width="70" height="30" as="geometry" />
        </mxCell>
        <mxCell id="XVonSXxWwofTlVb_7_li-16" value="Producer" style="text;html=1;align=center;verticalAlign=middle;resizable=0;points=[];autosize=1;strokeColor=none;fillColor=none;" vertex="1" parent="XVonSXxWwofTlVb_7_li-9">
          <mxGeometry x="25" y="170" width="70" height="30" as="geometry" />
        </mxCell>
        <mxCell id="XVonSXxWwofTlVb_7_li-12" value="" style="rounded=0;whiteSpace=wrap;html=1;" vertex="1" parent="1">
          <mxGeometry x="230" y="452.5" width="100" height="35" as="geometry" />
        </mxCell>
        <mxCell id="XVonSXxWwofTlVb_7_li-15" value="Producer" style="text;html=1;align=center;verticalAlign=middle;resizable=0;points=[];autosize=1;strokeColor=none;fillColor=none;" vertex="1" parent="1">
          <mxGeometry x="245" y="457.5" width="70" height="30" as="geometry" />
        </mxCell>
        <mxCell id="XVonSXxWwofTlVb_7_li-17" value="" style="rounded=0;whiteSpace=wrap;html=1;" vertex="1" parent="1">
          <mxGeometry x="234.28" y="100" width="680" height="60" as="geometry" />
        </mxCell>
        <mxCell id="XVonSXxWwofTlVb_7_li-18" value="Zookeeper" style="text;html=1;align=center;verticalAlign=middle;resizable=0;points=[];autosize=1;strokeColor=none;fillColor=none;fontSize=23;" vertex="1" parent="1">
          <mxGeometry x="500" y="100" width="130" height="40" as="geometry" />
        </mxCell>
        <mxCell id="XVonSXxWwofTlVb_7_li-25" value="" style="rounded=0;whiteSpace=wrap;html=1;" vertex="1" parent="1">
          <mxGeometry x="400" y="350" width="330" height="300" as="geometry" />
        </mxCell>
        <mxCell id="XVonSXxWwofTlVb_7_li-27" value="" style="shape=image;verticalLabelPosition=bottom;labelBackgroundColor=default;verticalAlign=top;aspect=fixed;imageAspect=0;image=data:image/png,iVBORw0KGgoAAAANSUhEUgAABLAAAASwCAIAAABkQySYAAAgAElEQVR4Aezd66GyOMMuYEugBEuwBEuwBEuwA0uwBEtYJViCJVgCJbjXfL6bcQRZHJJwyPX8mGEhILkSQm5B3Dz9I0CAAAECBAgQIECAAIEsBTZZllqhCRAgQIAAAQIECBAgQOApEGoEBAgQIECAAAECBAgQyFRAIMy04hWbAAECBAgQIECAAAECAqE2QIAAAQIECBAgQIAAgUwFBMJMK16xCRAgQIAAAQIECBAgIBBqAwQIECBAgAABAgQIEMhUQCDMtOIVmwABAgQIECBAgAABAgKhNkCAAAECBAgQIECAAIFMBQTCTCtesQkQIECAAAECBAgQICAQagMECBAgQIAAAQIECBDIVEAgzLTiFZsAAQIECBAgQIAAAQICoTZAgAABAgQIECBAgACBTAUEwkwrXrEJECBAgAABAgQIECAgEGoDBAgQIECAAAECBAgQyFRAIMy04hWbAAECBAgQIECAAAECAqE2QIAAAQIECBAgQIAAgUwFBMJMK16xCRAgQIAAAQIECBAgIBBqAwQIECBAgAABAgQIEMhUQCDMtOIVmwABAgQIECBAgAABAgKhNkCAAAECBAgQIECAAIFMBQTCTCtesQkQIECAAAECBAgQICAQagMECBAgQIAAAQIECBDIVEAgzLTiFZsAAQIECBAgQIAAAQICoTZAgAABAgQIECBAgACBTAUEwkwrXrEJECBAgAABAgQIECAgEGoDBAgQIECAAAECBAgQyFRAIMy04hWbAAECBAgQIECAAAECAqE2QIAAAQIECBAgQIAAgUwFBMJMK16xCRAgQIAAAQIECBAgIBBqAwQIECBAgAABAgQIEMhUQCDMtOIVmwABAgQIECBAgAABAgKhNkCAAAECBAgQIECAAIFMBQTCTCtesQkQIECAAAECBAgQICAQagMECBAgQIAAAQIECBDIVEAgzLTiFZsAAQIECBAgQIAAAQICoTZAgAABAgQIECBAgACBTAUEwkwrXrEJECBAgAABAgQIECAgEGoDBAgQIECAAAECBAgQyFRAIMy04hWbAAECBAgQIECAAAECAqE2QIAAAQIECBAgQIAAgUwFBMJMK16xCRAgQIAAAQIECBAgIBBqAwQIECBAgAABAgQIEMhUQCDMtOIVmwABAgQIECBAgAABAgKhNkCAAAECBAgQIECAAIFMBQTCTCtesQkQIECAAAECBAgQICAQagMECBAgQIAAAQIECBDIVEAgzLTiFZsAAQIECBAgQIAAAQICoTZAgAABAgQIECBAgACBTAUEwkwrXrEJECBAgAABAgQIECAgEGoDBAgQIECAAAECBAgQyFRAIMy04hWbAAECBAgQIECAAAECAqE2QIAAAQIECBAgQIAAgUwFBMJMK16xCRAgQIAAAQIECBAgIBBqAwQIECBAgAABAgQIEMhUQCDMtOIVmwABAgQIECBAgAABAgKhNkCAAAECBAgQIECAAIFMBQTCTCtesQkQIECAAAECBAgQICAQagMECBAgQIAAAQIECBDIVEAgzLTiFZsAAQIECBAgQIAAAQICoTZAgAABAgQIECBAgACBTAUEwkwrXrEJECBAgAABAgQIECAgEGoDBAgQIECAAAECBAgQyFRAIMy04hWbAAECBAgQIECAAAECAqE2QIAAAQIECBAgQIAAgUwFBMJMK16xCRAgQIAAAQIECBAgIBBqAwQIECBAgAABAgQIEMhUQCDMtOIVmwABAgQIECBAgAABAgKhNkCAAAECBAgQIECAAIFMBQTCTCtesQkQIECAAAECBAgQICAQagMECBAgQIAAAQIECBDIVEAgzLTiFZsAAQIECBAgQIAAAQICoTZAgAABAgQIECBAgACBTAUEwkwrXrEJECBAgAABAgQIECAgEGoDBAgQIECAAAECBAgQyFRAIMy04hWbAAECBAgQIECAAAECAqE2QIAAAQIECBAgQIAAgUwFBMJMK16xCRAgQIAAAQIECBAgIBBqAwQIECBAgAABAgQIEMhUQCDMtOIVmwABAgQIECBAgAABAgKhNkCAAAECBAgQIECAAIFMBQTCTCtesQkQIECAAAECBAgQICAQagMECBAgQIAAAQIECBDIVEAgzLTiFZsAAQIECBAgQIAAAQICoTZAgAABAgQIECBAgACBTAUEwkwrXrEJECBAgAABAgQIECAgEGoDBAgQIECAAAECBAgQyFRAIMy04hWbAAECBAgQIECAAAECAqE2QIAAAQIECBAgQIAAgUwFBMJMK16xCRAgQIAAAQIECBAgIBBqAwQIECBAgAABAgQIEMhUQCDMtOIVmwABAgQIECBAgAABAgKhNkCAAAECBAgQIECAAIFMBQTCTCtesQkQIECAAAECBAgQICAQagMECBAgQIAAAQIECBDIVEAgzLTiFZsAAQIECBAgQIAAAQICoTZAgAABAgQIECBAgACBTAUEwkwrXrEJECBAgAABAgQIECAgEGoDBAgQIECAAAECBAgQyFRAIMy04hWbAAECBAgQIECAAAECAqE2QIAAAQIECBAgQIAAgUwFBMJMK16xCRAgQIAAAQIECBAgIBBqAwQIECBAgAABAgQIEMhUQCDMtOIVmwABAgQIECBAgAABAgKhNkCAAAECBAgQIECAAIFMBQTCTCtesQkQIECAAAECBAgQICAQagMECBAgQIAAAQIECBDIVEAgzLTiFZsAAQIECBAgQIAAAQICoTZAgAABAgQIECBAgACBTAUEwkwrXrEJECBAgAABAgQIECAgEGoDBAgQIECAAAECBAgQyFRAIMy04hWbAAECBAgQIECAAAECAqE2QIAAAQIECBAgQIAAgUwFBMJMK16xCRAgQIAAAQIECBAgIBBqAwQIECBAgAABAgQIEMhUQCDMtOIVmwABAgQIECBAgAABAgKhNkCAAAECBAgQIECAAIFMBQTCTCtesQkQIECAAAECBAgQICAQagMECBAgQIAAAQIECBDIVEAgzLTiFZsAAQIECBAgQIAAAQICoTZAgAABAgQIECBAgACBTAUEwkwrXrEJECBAgAABAgQIECAgEGoDBAgQIECAAAECBAgQyFRAIMy04hWbAAECBAgQIECAAAECAqE2QIAAAQIECBAgQIAAgUwFBMJMK16xCRAgQIAAAQIECBAgIBBqAwQIECBAgAABAgQIEMhUQCDMtOIVmwABAgQIECBAgAABAgKhNkCAAAECBAgQIECAAIFMBQTCTCtesQkQIECAAAECBAgQICAQagMECBAgQIAAAQIECBDIVEAgzLTiFZsAAQIECBAgQIAAAQICoTZAgAABAgQIECBAgACBTAUEwkwrXrEJECBAgAABAgQIECAgEGoDBAgQIECAAAECBAgQyFRAIMy04hWbAAECBAgQIECAAAECAqE2QIAAAQIECBAgQIAAgUwFBMJMK16xCRAgQIAAAQIECBAgIBBqAwQIECBAgAABAgQIEMhUQCDMtOIVmwABAgQIECBAgAABAgKhNkCAAAECBAgQIECAAIFMBQTCTCtesQkQIECAAAECBAgQICAQagMECBAgQIAAAQIECBDIVEAgzLTiFZsAAQIECBAgQIAAAQICoTZAgAABAgQIECBAgACBTAUEwkwrXrEJECBAgAABAgQIECAgEGoDBAgQIECAAAECBAgQyFRAIMy04hWbAAECBAgQIECAAAECAqE2QIAAAQIECBAgQIAAgUwFBMJMK16xCRAgQIAAAQIECBAgIBBqAwQIECBAgAABAgQIEMhUQCDMtOIVmwABAgQIECBAgAABAgKhNkCAAAECBAgQIECAAIFMBQTCTCtesQkQIECAAAECBAgQICAQagMECBAgQIAAAQIECBDIVEAgzLTiFZsAAQIECBAgQIAAAQICoTZAgAABAgQIECBAgACBTAUEwkwrXrEJECBAgAABAgQIECAgEGoDBAgQIECAAAECBAgQyFRAIMy04hWbAAECBAgQIECAAAECAqE2QIAAAQIECBAgQIAAgUwFBMJMK16xCRAgQIAAAQIECBAgIBBqAwQIECBAgAABAgQIEMhUQCDMtOIVmwABAgQIECBAgAABAgKhNkCAAAECBAgQIECAAIFMBQTCTCtesQkQIECAAAECBAgQICAQagMECBAgQIAAAQIECBDIVEAgzLTiFZsAAQIECBAgQIAAAQICoTZAgAABAgQIECBAgACBTAUEwkwrXrEJECBAgAABAgQIECAgEGoDBAgQIECAAAECBAgQyFRAIMy04hWbAAECBAgQIECAAAECAqE2QIAAAQIECBAgQIAAgUwFBMJMK16xCRAgQIAAAQIECBAgIBBqAwQIECBAgAABAgQIEMhUQCDMtOIVmwABAgQIECBAgAABAgKhNkCAAAECBAgQIECAAIFMBQTCTCtesQkQIECAAAECBAgQICAQagMECBAgQIAAAQIECBDIVEAgzLTiFZsAAQIECBAgQIAAAQICoTZAgAABAgQIECBAgACBTAUEwkwrXrEJECBAgAABAgQIECAgEGoDBAgQIECAAAECBAgQyFRAIMy04hWbAAECBAgQIECAAAECAqE2QIAAAQIECBAgQIAAgUwFBMJMK16xCRAgQIAAAQIECBAgIBBqAwQIECBAgAABAgQIEMhUQCDMtOIVmwABAgQIECBAgAABAgKhNkCAAAECBAgQIECAAIFMBQTCTCtesQkQIECAAAECBAgQICAQagMECBAgQIAAAQIECBDIVEAgzLTiFZsAAQIECBAgQIAAAQICoTZAgAABAgQIECBAgACBTAUEwkwrXrEJECBAgAABAgQIECAgEGoDBAgQIECAAAECBAgQyFRAIMy04hWbAAECBAgQIECAAAECAqE2QIAAAQIECBAgQIAAgUwFBMJMK16xCRAgQIAAAQIECBAgIBBqAwQIECBAgAABAgQIEMhUQCDMtOIVmwABAgQIECBAgAABAgKhNkCAAAECBAgQIECAAIFMBQTCTCtesQkQIECAAAECBAgQICAQagMECBAgQIAAAQIECBDIVEAgzLTiFZsAAQIECBAgQIAAAQICoTZAgAABAgQIECBAgACBTAUEwkwrXrEJECBAgAABAgQIECAgEGoDBAgQIECAAAECBAgQyFRAIMy04hWbAAECBAgQIECAAAECAqE2QIAAAQIECBAgQIAAgUwFBMJMK16xCRAgQIAAAQIECBAgIBBqAwQIECBAgAABAgQIEMhUQCDMtOIVmwABAgQIECBAgAABAgKhNkCAAAECBAgQIECAAIFMBQTCTCtesQkQIECAAAECBAgQICAQagMECBAgQIAAAQIECBDIVEAgzLTiFZsAAQIECBAgQIAAAQICoTZAgAABAgQIECBAgACBTAUEwkwrXrEJECBAgAABAgQIECAgEGoDBAgQIECAAAECBAgQyFRAIMy04hWbAAECBAgQIECAAAECAqE2QIAAAQIECBAgQIAAgUwFBMJMK16xCRAgQIAAAQIECBAgIBBqAwQIECBAgAABAgQIEMhUQCDMtOIVmwABAgQIECBAgAABAgKhNkCAAAECBAgQIECAAIFMBQTCTCtesQkQIECAAAECBAgQICAQagMECBAgQIAAAQIECBDIVEAgzLTiFZsAAQIECBAgQIAAAQICoTZAgAABAgQIECBAgACBTAUEwkwrXrEJECBAgAABAgQIECAgEGoDBAgQIECAAAECBAgQyFRAIMy04hWbAAECBAgQIECAAAECAqE2QIAAAQIECBAgQIAAgUwFBMJMK16xCRAgQIAAAQIECBAgIBBqAwQIECBAgAABAgQIEMhUQCDMtOIVmwABAgQIECBAgAABAgKhNkCAAAECBAgQIECAAIFMBQTCTCtesQkQIECAAAECBAgQICAQagMECBAgQIAAAQIECBDIVEAgzLTiFZsAAQIECBAgQIAAAQICoTZAgAABAgQIECBAgACBTAUEwkwrXrEJECBAgAABAgQIECAgEGoDBAgQIECAAAECBAgQyFRAIMy04hWbAAECBAgQIECAAAECAqE2QIAAAQIECBAgQIAAgUwFBMJMK16xCRAgQIAAAQIECBAgIBBqAwQIECBAgAABAgQIEMhUQCDMtOIVmwABAgQIECBAgAABAgKhNkCAAAECBAgQIECAAIFMBQTCTCtesQkQIECAAAECBAgQICAQagMECBAgQIAAAQIECBDIVEAgzLTiFZsAAQIECBAgQIAAAQICoTZAgAABAgQIECBAgACBTAUEwkwrXrEJECBAgAABAgQIECAgEGoDBAgQIECAAAECBAgQyFRAIMy04hWbAAECBAgQIECAAAECAqE2QIAAAQIECBAgQIAAgUwFBMJMK16xCRAgQIAAAQIECBAgIBBqAwQIECBAgAABAgQIEMhUQCDMtOIVmwABAgQIECBAgAABAgKhNkCAAAECBAgQIECAAIFMBQTCTCtesQkQIECAAAECBAgQICAQagMECBAgQIAAAQIECBDIVEAgzLTiFZsAAQIECBAgQIAAAQICoTZAgAABAgQIECBAgACBTAUEwkwrXrEJECBAgAABAgQIECAgEGoDBAgQIECAAAECBAgQyFRAIMy04hWbAAECBAgQIECAAAECAqE2QIAAAQIECBAgQIAAgUwFBMJMK16xCRAgQIAAAQIECBAgIBBqAwQIECBAgAABAgQIEMhUQCDMtOIVmwABAgQIECBAgAABAgKhNkCAAAECBAgQIECAAIFMBQTCTCtesQkQIECAAAECBAgQICAQagMECBAgQIAAAQIECBDIVEAgzLTiFZsAAQIECBAgQIAAAQICoTZAgAABAgQIECBAgACBTAUEwkwrXrEJECBAgAABAgQIECAgEGoDBAgQIECAAAECBAgQyFRAIMy04hWbAAECBAgQIECAAAECAqE2QIAAAQIECBAgQIAAgUwFBMJMK16xCRAgQIAAAQIECBAgIBBqAwQIECBAgAABAgQIEMhUQCDMtOIVmwABAgQIECBAgAABAgKhNkCAAAECBAgQIECAAIFMBQTCTCtesQkQIECAAAECBAgQICAQagMECBAgQIAAAQIECBDIVEAgzLTiFZsAAQIECBAgQIAAAQICoTZAgAABAgQIECBAgACBTAUEwkwrXrEJECBAgAABAgQIECAgEGoDBAgQIECAAAECBAgQyFRAIMy04hWbAAECBAgQIECAAAECAqE2QIAAAQIECBAgQIAAgUwFBMJMK16xCRAgQIAAAQIECBAgIBBqAwQIECBAgAABAgQIEMhUQCDMtOIVmwABAgQIECBAgAABAgKhNkCAAAECBAgQIECAAIFMBQTCTCtesQkQIECAAAECBAgQICAQagMECBAgQIAAAQIECBDIVEAgzLTiFZsAAQIECBAgQIAAAQICoTZAgAABAgQIECBAgACBTAUEwkwrXrEJECBAgAABAgQIECAgEGoDBAgQIECAAAECBAgQyFRAIMy04hWbAAECBAgQIECAAAECAqE2QIAAAQIECBAgQIAAgUwFBMJMK16xCRAgQIAAAQIECBAgIBBqAwQIECBAgAABAgQIEMhUQCDMtOIVmwABAgQIECBAgAABAgKhNkCAAAECBAgQIECAAIFMBQTCTCtesQkQIECAAAECBAgQICAQagMECBAgQIAAAQIECBDIVEAgzLTiFZsAAQIECBAgQIAAAQICoTZAgAABAgQIECBAgACBTAUEwkwrXrEJECBAgAABAgQIECAgEGoDBAgQIECAAAECBAgQyFRAIMy04hWbAAECBAgQIECAAAECAqE2QIAAAQIECBAgQIAAgUwFBMJMK16xCRAgQIAAAQIECBAgIBBqAwQIECBAgAABAgQIEMhUQCDMtOIVmwABAgQIECBAgAABAgKhNkCAAAECBAgQIECAAIFMBQTCTCtesQkQIECAAAECBAgQICAQagMECBAgQIAAAQIECBDIVEAgzLTiFZsAAQIECBAgQIAAAQICoTZAgAABAgQIECBAgACBTAUEwkwrXrEJECBAgAABAgQIECAgEGoDBAgQIECAAAECBAgQyFRAIMy04hWbAAECBAgQIECAAAECAqE2QIAAAQIECBAgQIAAgUwFBMJMK16xCRAgQIAAAQIECBAgIBBqAwQIECBAgAABAgQIEMhUQCDMtOIVmwABAgQIECBAgAABAgKhNkCAAAECBAgQIECAAIFMBQTCTCtesQkQIECAAAECBAgQICAQagMECBAgQIAAAQIECBDIVEAgzLTiFZsAAQIECBAgQIAAAQICoTZAgAABAgQIECBAgACBTAUEwkwrXrEJECBAgAABAgQIECAgEGoDBAgQIECAAAECBAgQyFRAIMy04hWbAAECBAgQIECAAAECAqE2QIAAAQIECBAgQIAAgUwFBMJMK16xCRAgQIAAAQIECBAgIBBqAwQIECBAgAABAgQIEMhUQCDMtOIVmwABAgQIECBAgAABAgKhNkCAAAECBAgQIECAAIFMBQTCTCtesQkQIECAAAECBAgQICAQagMECBAgQIAAAQIECBDIVEAgzLTiFZsAAQIECBAgQIAAAQICoTZAgAABAgQIECBAgACBTAUEwkwrXrEJECBAgAABAgQIECAgEGoDBAgQIECAAAECBAgQyFRAIMy04hWbAAECBAgQIECAAAECAuFi2sDj8bj937/zX/8ul8trybIsF1M8O0qAAAECBAgQIECAQHIBgTA5ebc3fDwePz8/5/P5cDjsdrvNiH/7/f54PJ7P59vtJiJ247cUAQIECBAgQIAAgSwEBMIZVfPj8bher8fjcbvdjgiAf6y62+1Op9PPz49wOKO6tysECBAgQIAAAQIEphAQCKdQ/+973u/3y+Uy8jLgHynwy8v7/f5yuTwej//ukb8IECBAgAABAgQIEMhCQCCcrJrLspwqB9bj4W63u16vrhlO1hq8MQECBAgQIECAAIEpBATCCdRvt9vxeKynssnnFEVxPB7v9/sEKN6SAAECBAgQIECAAIHkAgJhUvLr9TrJraF9o+Z+v/99pE1SGm9GgAABAgQIECBAgEByAYEwEfn1eo36qJi+ka/L8tvt9nq9JgLyNgQIECBAgAABAgQIJBcQCKOT3263xUXB97i43+9vt1t0Jm9AgAABAgQIECBAgEByAYEwIvnj8djv9+/harnT+/3ew0gjthWbJkCAAAECBAgQIDCFgEAYS/18Pi83/n3b8/P5HMvLdgkQIECAAAECBAgQSC4gEIYnv9/vi75H9FsafM3fbrfuIA3faGyRAAECBAgQIECAwBQCAmFg9VVeGKxHxNPpFBjO5ggQIECAAAECBAgQSC4gEAYjfzwei/hJiXq6GzZnt9v5VmGw1mNDBAgQIECAAAECBKYQEAjDqN9ut6IohiWr5a5VFIWfKwzTgGyFAAECBAgQIECAwBQCAmEA9cvlstxQN37P3T4aoA3ZBAECBAgQIECAAIEpBATCserH43F8plr6Fg6HQ1mWYymtT4AAAQIECBAgQIBAWgGBcLh3WZaHw2HpWS7U/u92O5lweGOyJgECBAgQIECAAIEpBATCgeplWWb1CJkuudFjZgY2JqsRIECAAAECBAgQmEhAIBwCLw1+y4dFUdzv9yGm1iFAgAABAgQIECBAILmAQNibXBr8lgZf82XC3k3KCgQIECBAgAABAgQmEhAI+8FLg+1psMqEvk/Yr2FZmgABAgQIECBAgMAUAgJhP3XPFO0SCDebjWfM9GtYliZAgAABAgQIECAwhYBA2ENdGuyYBl+LyYQ92pZFCRAgQIAAAQIECEwhIBB2Vb9er73ikIU3m83xeOzqazkCBAgQIECAAAECBJILCISdyO/3u4A3TOB8PncithABAgQIECBAgAABAskFBMK/ycuyLIpiWByy1maz+fn5+VvZEgQIECBAgAABAgQIJBcQCP8m3+/3ct0YgaIoHo/H39CWIECAAAECBAgQIEAgrYBA+If35XIZk4Ws+xLY7XZ/QHuZAAECBAgQIECAAIHkAgJhG7mvDgYMtL5M2NbUvEaAAAECBAgQIEBgCgGBsE19t9sFTEQ2db/f27i9RoAAAQIECBAgQIBAWgGB8Ku3m0WDJ1g3jn5tbV4gQIAAAQIECBAgMIWAQNis/ng8PFk0eCDcbDZuHG1ucOYSIECAAAECBAgQmEJAIGxWPx6PMeKQbXriaHODM5cAAQIECBAgQIDAFAICYYP67XaT3OIJHI/HBnSzCBAgQIAAAQIECBBILiAQNpDP/4cHd7vdfr8/HA6/d2C+/h0Oh/1+v5Sn4NxutwZ3swgQIECAAAECBAgQSCsgEH56z/Py4Ha7PR6P1+u1y4M67/f79Xo9Ho/b7Tbehb4xW97v95/u/iZAgAABAgQIECBAILmAQPhJPqvLg0VRnE6nLiHwsxj//+/7/X46nWb4gBwXCf9/Ffk/AQIECBAgQIAAgckEBML/0M/n8uB2u71er//ZuXF/XK/XWV0wdJFwXH1amwABAgQIECBAgEAAAYHwP4hzuDwYPAq+l3BWsdBFwveqMU2AAAECBAgQIEAgvYBA+K/54/EY8724IOuez+eyLP/dpwhTv9s/n89B9nbkRjxuNEL12iQBAgQIECBAgACBHgIC4b9Y0/724Ha7HfNdwX+L0W3qfr/P4Q7Sx+PRbX8tRYAAAQIECBAgQIBAeAGB8H+mZVlO+OSVw+EQ+8Jgve2UZXk4HEZe5Ru5+u9vZtR3zBwCBAgQIECAAAECBNIICIT/c75eryOzzeDVp71z8nQ6Dd7z8Stut9s0Dd27ECBAgAABAgQIECBQFxAI/2cy1eNkwj5KtF7BXeZMGIY3m83Pz0+XnbQMAQIECBAgQIAAAQLBBQTCf0inepzMHNLgq0lNmAmnvUAa/IiyQQIECBAgQIAAAQILEhAI/6msy+Uy/u7HvluYWxCa6t7Roroxk8QAACAASURBVCgWdMDYVQIECBAgQIAAAQJrEhAI/6nN9PeLHg6HGTajqZ4x467RGTYGu0SAAAECBAgQIJCDgED4LMuy78W9kctvt9v0zxTt0prLspzktyjmdrG0i5VlCBAgQIAAAQIECKxAQCB8/vz8jAx4fVe/3W6zbTr3+71vccYv71mjs20PdowAAQIECBAgQGDdAgLhM/F3506n08ybVGKQV5683+8zZ7F7BAgQIECAAAECBNYnIBA+d7vd+GtcHbcw25tF31v2JDeOXi6X930wTYAAAQIECBAgQIBAAoHcA2HiLxDO53cm2ttW+l+hmOdTdtqVvEqAAAECBAgQIEBg6QK5B8Lb7dbx4t74xZb1TbnET5dZFs7SD3v7T4AAAQIECBAgQOAlkHsgPJ/P45Nexy0s5fLgq2Wkv0g4zyev6ikIECBAgAABAgQIrFgg90CY7Jf3iqJYXOApiqJj1g2y2JwfvrriLkDRCBAgQIAAAQIEchbIPRAme6LMEn9qL/HjRs/nc86HorITIECAAAECBAgQSC+QeyAMcmmry0aW+LMKiX+TcP4/yJH++PSOBAgQIECAAAECBKIKZB0IH49Hlyw3fpmiKKLWYryNp3y0zH6/j1cQWyZAgAABAgQIECBAoC6QdSBM9ojRJd4v+morx+NxfB7uuAUPGq0fn+YQIECAAAECBAgQiCqQdSD8+fnpmFVGLras54u+N7jEzxp9f2vTBAgQIECAAAECBAjEFsg6ECb7zYklfoHw1fISf40wdnO3fQIECBAgQIAAAQIE3gUEwpEX/zqt/i6+uOlOJQy00HKT8+Kq1Q4TIECAAAECBAgQeD6fAmGgKPN9M0v/alyyX+bYbDZ+ilCvRIAAAQIECBAgQCClQNaBMM0TU5b+8Mz9fv897QZ+RSBMefB7LwIECBAgQIAAAQJZB8I0UUcg7J4aBUJdEgECBAgQIECAAIGUAgJh97QycMml/9766XQaWPL+qwmEKQ9+70WAAAECBAgQIEBAIOyfWnqucT6fF93Okj2L1XcIF91O7DwBAgQIECBAgMASBQTCnvGu/+KuEHY3c4VwiZ2IfSZAgAABAgQIEFiugEDYPa0MXNJ3CLvDCYTL7UrsOQECBAgQIECAwBIFsg6Eab4dJxAKhEvsGuwzAQIECBAgQIBADgJZB8I0345b+u8Qbrfb7olu5JKuEObQ6SgjAQIECBAgQIDAfAQEwpERptPq86nvAXvSqYSBFhIIB1SQVQgQIECAAAECBAgMFhAIA0WZ1s3c7/fBNTTtivf7vbVkgV+ctrDenQABAgQIECBAgEBuAlkHwtvtFjjQfNnc9XpdaMO6Xq9fyhRl9kKV7DYBAgQIECBAgACBhQoIhFGCzcdGj8fjQtvH8Xj8KEu8P5f+ZcuFVrHdJkCAAAECBAgQyFkg60D4fD7jxZv3LRdFsdBGVhTFe0GiTi/9cawLrWK7TYAAAQIECBAgkLNA7oEwWeBZ4uNSEn+BcLnXUXPuQZSdAAECBAgQIEBg0QK5B8L9fh/1qle18SWmnZT3i242m/P5vOhjyc4TIECAAAECBAgQWJxA7oEwzW/TbzaboijKslxQ+yjLMtnl01ds/vn5WZCPXSVAgAABAgQIECCwAoHcA2HKp2gu61mjKWVegfDxeKzgiFIEAgQIECBAgAABAgsSyD0Qpvya3LKeorndbqv7XRNMLPe5Ows62u0qAQIECBAgQIAAgQ+B3APh8/lMeWPkUi4Spr886BGjH0emPwkQIECAAAECBAgkEBAIn4fDIcEVsNdbLOKbhOm/PeiJMgkOdW9BgAABAgQIECBAoC4gED4vl0uyQLjZbE6nU70aZjUn2YN23tmX+LMcs6o1O0OAAAECBAgQIEBggIBA+Ez5NcJXBJpz+Lndbu85Ldn0gLZrFQIECBAgQIAAAQIERgoIhP8Apn+Ayjx/gqIsy8QUr8B5OBxGtmOrEyBAgAABAgQIECAwQEAg/Act/U2S83yGyn6/T3ZJ8P2NLpfLgLZrFQIECBAgQIAAAQIERgoIhP8Apr9rdLPZHI/HkZUXdvXj8fge0lJO+wXCsFVpawQIECBAgAABAgQ6CgiE/4Oa5FbJ+WTCCdPgbrfr2FgtRoAAAQIECBAgQIBAWAGB8H+e5/M55TWx6r3mkAknTIObzcb9oq8mePvrn+uoYfs+WyNAgAABAgQIEHg+nwLh/5rB4/GoQlriiWkz4bRpcLPZ5JZzyrL8fczs+Xw+nU77/X7Apen9fv/7GJ7z+fzz83O/33VkBAgQIECAAAECBAYLCIT/0qX8hfqPzLnf79M/d7Qsy6meIlMVP5Pniz4ej8vlcjweB8S/yqpl4vcZRefzec4/Z/LvYWaKAAECBAgQIEBgTgIC4b+1MdVP8L0G+kVRpBzQ3263oihaMkaal67X678VsLqpn5+feCHwWwUdDofL5ZLbddfVtR0FIkCAAAECBAgkEhAI/wMd6QLOt7F7ff7pdIp9qbAsy/Q/s1Ev6Waz2W63/9Ffyx+vHDh53t7tdpfLJXZzWkulKQcBAgQIECBAIFMBgfA/FX+9XhujS8qZRVHEe87K5XKZPKhUmOfz+T/6C//j96Lc+Xye/DOFireaOBwOKS8+L7wa7T4BAgQIECBAIC8BgfCzvmcyoN9utwEv75RleblcZlK0V1ApimI1F6/u9/vkz+ap4t+3ie12u+4bdD+PZH8TIECAAAECBAh0EBAIP5HmcJGwGtMXRXE8Hn9+fj73svPfM7l9sSpRNbGOy4O3223yB/NUpF0miqI4n8+rieKdjwMLEiBAgAABAgQINAsIhA0us7qS9hrlF0XxelhIl3v/brfb5XI5HA7zuTv0I6us4PLg/X5fVhR8r4KotyU3HFFmESBAgAABAgQIzFVAIGyomZ+fn/fR8wynt9vtvunfDKNso96iLw+WZTn/G0Qb2T9mbrfbMRefG44cswgQIECAAAECBJYmIBA219hyL/58DPpn+OeiLw/O6qk8QSp3v9/7jYrmXsBcAgQIECBAgEAGAgJhcyU/Ho8go20bqQvEe4Zqc10Gmnu/33e7Xb04K5jz+mJhICebIUCAAAECBAgQWJKAQPi1ts7n8wrG+nMrwkJ/ezCHxrDb7Vwq/NodeIEAAQIECBAgsFIBgfBrxZZluZSv5M0t9bXsT5eH4nytkileKMsyn/uHi6Lw0xRTtDLvSYAAAQIECBCYTEAgbKO/3W4t2cZLfQWOx2Mb9/xeu91us31Sa1/87ssfj0e/SzG/xmiPCBAgQIAAAQJRBATCP1hzuFewe1QYs+TiniVzuVzGlHfR67p99I9+wcsECBAgQIAAgbUICIR/1+RaHyWSOLEs62bRdfywxJgqLorifr//fXhYggABAgQIECBAYMkCAuHftfd4PDK8b3BMlqivezqd/oaexxJlWfoI4FWDvlI4jyZpLwgQIECAAAECEQUEwk648/+p+noGm8+c3W7XSXkGC0mD9WbjMTMzaJh2gQABAgQIECAQS0Ag7Crry4T1qNBlTlEUS/kxA2nwW4XKhF27CcsRIECAAAECBJYmIBD2qDHfK/sWGFrmL+Wrg9JgSyVuNhuZsEdPYVECBAgQIECAwHIEBMJ+deXbZe2x4ePVpaQIafCj4hr/XEpt9jukLU2AAAECBAgQyFtAIOxX/5JDY1RonLmUXx1Up43V1zhTJuzXX1iaAAECBAgQIDB7AYGwdxXJD41R4WPmUtLg8/l01fej7tr/XMo9wL0PbCsQIECAAAECBLIUEAiHVLtM2J4ZFpQGfS+0vSrrr/p9wiFdhnUIECBAgAABAnMVEAgH1oxMWI8KrzkLSoOXy+VbKcxvEdhut2VZDjxyrEaAAAECBAgQIDAnAYFweG3IhPXMsKA0eLvd6vtvTkeB/X4//MixJgECBAgQIECAwGwEBMJRVVGW5eFw6DiGXv1iC0qDZVkWRbH6GolawPP5POrgsTIBAgQIECBAgMAMBATCAJXge2ibzWZZ8WC/30cNS5ls3ANmAnQfNkGAAAECBAgQmFRAIAzDf71eM8kA9WIWRbGsXyM4n8/1UpgzQMCXCcN0H7ZCgAABAgQIEJhOQCAMZn+/3zO8C3G73d7v92CI8Td0v98HJB+rfBM4nU7xK807ECBAgAABAgQIxBIQCEPK5vaVwsPhsLinTfrVwW/RbvB8N46G7ERsiwABAgQIECCQVkAgDO99uVxWf6mwKIrL5RLeLvIW/c7E4NTXsqIbRyM3W5snQCCWwOPxuN1uv6ez8/l8PB73//1XFEU143A4nM/n6/XqI7BYlWG7BAhMJyAQRrF/PB4rfmzJbrdb1m2irzr2ZNGWUDfypWU9UijKMW+jBAgsQeDxeFyv19PpNPIcvdvtjsfj9Xp9PB5LKLd9JECAQJuAQNimM/K19V0qXOiFwVc9ehjsyNTXsnpRFEZFI7sLqxMgEE/gfr+fTqftdtvSjw1+abfbnU4nVw7jVZ8tEyAQW0AgjCtcluVqcsjxeFzuoH9Zz5LZ7Xav+5QWdO/xgn6FMu4xb+sECMxG4PecdT6fI+XAeoAsiuJ4PP78/MwGwI4QIECgk4BA2Ilp5EJLv4N0v98v/bPPkXcH1U/8oeYURfH6asrtdmvJ27fb7XWb05wfirPEG4m/Hdq32y1UFX/bzre3Tjn/8XisYPC6xO8zp6zlPN/rdrsdDodvR1/s+dvt9nQ6BewSY5/C3Paf52Gi1AQqAYGwoog+cbvdYvfpwU9yK4iCz+czweC+r/yY4UJZltfrdcKxzrfC7vf76EdRqjdI0GZSFaXtfY7H4263a1ti9q+9aqrlw5TZl8AOBhaY1ak21GepsQcPAmHgVmhzBJYmIBCmrrHb7baIm0jXEQVftRv7VPotIDXO3+/3oa7JPB6P0+k0q9tKA34invrI/O/75RAIy7J8NdEgY9ayLG9//fuvcZi/Xkd3gt/DfH0Q83oYSf2g2+/3r0eMdPwlnjpVxxXf1Xpt5PU4zfoq3efMP3XP8DsaQQ6u5/MZ+ywmEL4fWaYJZCggEE5T6TMcyr+Ghq+vQMz/xN+92ubz7cFIGft3HHk+n+sj1MY4Gnvmar5JmEMgPJ/Pr/YQ5NJud7H9fh/qbrrqTYuiGBCoOnYjPz8/vS7IHw6HP2NA/Uj8c5X63vbaSFXd9bU6zpl5ZpjnU9wGVGu9ogXCRhMzCRAIKCAQBsQcsqn53Pt3OByu12u8QdUQnRDrzOF6bFEUoa4KfiN5PB69xqwdh4ADFlvHpwlV0hgg0HGVb1WZZv7Hr7CMr7UBYvv9fuT7vrf5GN8kvN1ug59H0v4BUL2RDEgOvTay4kBYluV7S6izTDhnQLU29gCuEDaymEmAQCgBgTCU5KjtTPitsLXmwFd9PB6PCYcCr7c+Ho/JYvbPz8/klwoT3Lw36mDrtvKAeNO3pXXbkVhLXS6X9x0ef2l3mFhRFNfrdVghP47u7XY7bDuNawXJGC2XXt/xX9MDkkOvjaw1EN7v98GhvQ4YfM6Aam1skAJhI4uZBAiEEhAIQ0kG287tdov3c0nV2W673ca+ZhVMZMSGxo+BKrEBE2MGu4MLXZZl7KFDO0VRFIN3fj4rDos37TIfr05b2PoYeuTHFmPEhmXC+sX/YdupV8T9fg/yOF+BsG4bds71ep38I7CP4/rjT4EwbI3bGgECkQQEwkiwYzcbO8m0jFTG7vqc1q+Pej/O1vH+LIpiwies1MfK8Upa33KocfmETWlMvKmDNM6ZsHTX67W+SyO/ITZGbMDB8nF58FWcIE9Mvd/vHTPGfr9vz40t3Wzdf0By6LWR8eeUkS0keINvbMZ1k2nnDKjWRqjYH/PNrXIbEcwkQCCegEAYz3bUlsefvNvPgi0jlVH7PaeVx4xQ2/X+fHW32438ctR4yNhNqAVhBa0rQeMZX8WDt9D4QcnI57I0iv2OMqt/h8Oh8X1fDalvmzmdTo0tcOT4uz0Nvn4tpv4Wj8fjer3WP4VpKVR95+ub/bN+e22k3iH83mRb1U6XiQF7+GcRBi+wiDS42WxCoQmEg5uKFQkQ6CIgEHZRmmCZ+sm7fu4fM6dlpDJBaeO8ZX18Nkas+7q73W7k3XehPCYcM02eh0caNsab7m2gy5Ij93Dw6j8/P992b8yl3Uax+k4+Ho9vB2b3ofPHE3Hei3M4HOpv2nFOWZbfIut2u+2C83vgvz/yt6Wbfd/n13T34lfF6bWR+jmlZfeqt5jnxIQ9W928fc6Aam00FwgbWcwkQCCUgEAYSjLwduon7/azTt9XlzsU6A7d8b6vvnTtyxdFMass9G3w3V6K8a/GeORj96ofv2RjvBnP8r6F8Ts5bAstI8sxz2VpFPu2h40D+u5Zrr17HHwAfpPp+1yo6pG/Ld3se0t4TQ9IDr02Ukdr2b1vFTeH+S2faNRBJp8zoFobkb81zlAF/L1E3Pi+ZhIgkImAQDjTiq6fvEP1+6/tLHQo0L22Jhk0DPgqVPcSDV5ykkwY5Ntcg4s8fsXGeBP2GBy/kwO28Ge5Bj9rqnHLLXtY7+K6P46o/bOeYU9M/XjsalXXgz/auF6vLd1stf1qYkByqNatJlo2Ugdv2b2Wipv2pfZ7eiuH+Uy01EgvSYGwF5eFCRDoKyAQ9hVLtHz95B32DLfEoUAv+klSUJebynqVIsjCZVm2P/oibNOqtjaT+2aHGTbGm6poQSaG7djItf4cVg7uGRrFWva2LMs6Y5eLe41XFz821bftfbsHdXAafBW8ZTc+dnjYl816baR+Thlc1y3VGvWllnt66xQzmSMQRm0SNk6AQCgBgTCUZODt1E/eYU9vixsK9PX99l2gsIzvWxt2XaJvuYYtf7/f33c1zfQ843FHwMZ4E9at454EXKzxyZz1Qg17Om6jWPvO1z+n6DJ67nJo973/rfHzo6hHdJ29S9k/PHttpH5OWdxZ4NuThOoO85kzoFo/avn1558f5Ywsct9DpnEnzSRAYLkCAuFM665+8h7Z3X+svrihQK966jjw/TAZ8+fIJzT2Kt2whWO3qLpe1PH0MITuazXGm3oZx8zpvjOhlqzHnu12W09lwyquUax9z+tj3D9Hz42XB+vl6n736fP5bLxWud1uW67vtZery6v1lvNn2eub7bWReg+wrLNAYwOrC8xtzoBqrVf08/msHyxhSyoQNrKbSSAfAYFwpnVdP3mH7f2XNRToW0nfvg4U1vB9a4O/edW3aGOW73Jp5b1QI6fHPKFkTDGDrJtg9BlkP7tvpPFTkuv//atXdJdbNz/eulHsY5mPP+tZ9M/Rc32Vw+HwrWgfb/ftz8buIvb17br5n2Wv73+vjdTPKcs6C9Srvl78Gc4ZUK31ihYIG03MJEAgoIBAGBAz5KbqJ++wp7plDQX6ytavGITV+9jaUjAbh+wfZQn754Bc0beuIy2fwCrSnn/bbP2gqC6j1Z/Rcjqdvm3n2/xGsW8Lf7su1363auNbvAbc9dJ1/zyinjS6r9tSwPaX6gfagOTQayP1c8pSOq7n89l4Zbhe/BnOGVCtjS3HFcJGFjMJEAglIBCGkgy8nfrJO+ypbkFDgQGyiS+FhTrlDyhp31Vijyo+WukiLpw2GjZmj4/Sjfyz8X0jzWx8aEp1k1i9txlwC3SjWEtx6m+62fxxPqq33qofa3z3Lgdm4/2iI58l01Lq6qV64+myt9Xqr4leG6mD73a7W59/H++e8s/EXXoddvCcAdXaCFtv/IN3qXHFqjdofHczCRBYvcAfJ+DVl3+2BayfvBs78cEzq4HUbAUG71jjCG8w1J8rLkuycdz8ZxkHL7DcQUYCqMEtfMCK9f7kPfI13nLZNxQ1in3b1cYfD2j/HcLG7b9/4lAfMXc5Nht/nybBle36MbXb7fY9/9U30hI/6m2gvnr7nG+1GXt+Yx217+p8Xm2pkV5u9eYdtozL7at7MVqYAIFvAgLhN5mJ548/ebefLboMlSYmGPr2jQPHdo0xr74PSYfuctL1Un7WvtxmlqAVJav1xsuDHzeFjrnl8lWQRrF6GX+f1HI+n+s3qW42m/av7f25h413Fbbfg/q7e/WeNsH9os/nc0yf07JuS/yol7RlO40v1WszzZzD4dC4P4uY2VIjvfQEwl5cFiZAoK+AQNhXLNHy40/e7SfL5Y7U/6yA2HTvsGnGjn8WudcCjY/QeC9UwOnqW2q99nAOCzfGm4Ayf94eGRChMSl9XARr/GGS9oT2sYeNYtUNib/XG8/n8+FwaIyCm82m/VBqvIZZ3736hx1/PjG1/ksGafrGsG2p2lpL/BjfMX7UeJo/G6u+Ku/8J1pqpBegQNiLy8IECPQVEAj7iiVafvzJu/1MmWbQkwjrv29TH+G1U4x59eMyy393ZKZ/Jb6lNuqz++MRN8abMU2lvm68nf/YcseYVB9x7na7j021/DlSrH3cXL882PhZQ2O3+RF9P4pQL3Wag7reHoLMaWFsxOn1ph90af5M+QFWL42OC7fUSC/AekPtuAMdF3PLaK/qsDCB9QkIhDOt0/En7/bTwIoDYewT5zvsnzekzbN5pSQKNR5KLDky3rw3km/TaUrUeHmwsd02Ltm9+saI1a/1veM0XiNqHL823hzbuGS1/fqx0L58teLIiW+tYuT8lvoaf04ZWeRhq9efATuSKPHqLTXSC6TeUMMWJE2z71VkCxMgkFJAIEyp3eO9xp+8288WKw6E9esh7RSDX228RtGjjqdbNOWH7ov7juWrWsbEm44tKk391w+HlmO/vnD7g17eizBMrCiK9jT4+xb1zvD9iTjv+/B8PhuvJbZcpq6Ps9OMjDs2kr6LtcSPRsZeT7H5oE7wZ+LbGfpqd1m+pUZ6AdYbapd3775Mmmbfq8gWJkAgpYBAmFK7x3vVT97de/YuS7YMCnvs5SwX7VL8IMt0HyvPzanxC2NBTOobWeg4Y1i8qRe/ZU6CVtFYipYRauMnBe23XFalaHyvluJvNpv9ft94rbLa5uvnCutfO2z5ZmDj5cSWJ6bWx9lpjuu6TEu9vIO8T/faSP2cMv+zQONV63qp5zxnQLW+V3E1XW+oYUu90I668jFBgMBIAYFwJGCs1esn77C9//yHAoNlw0K1bG3RZ9CWcoV9aaFKA+JNX7fBLbz7ivVBZPuzWxpvuWxJX+970l1su90ej8eOA+XGnrA9o/YqdX37afrGemvpCPJu3msjU5X0fYf7Ttev99aLPPM5A6q1UaneqsMWfKEddaOVmQQIDBAQCAegpVilfvIO2/unGfSkkPrve3QflY73DHWm/28JEv0Ve3hR8aa53hJcLUFDCr7PHxtsLMKf92fWh+At92e+v2Pj2/2OMqt/1+v1dru1Z7n3Db6m63ex/hlQG3+27lvBGy+K1ncj+JzqAKkmBvQn1brVRMtG6ueU+Z8F6rVflXQpEy010qtRxe6xf4/TXvtjYQIEViYgEM60Qusn77Dnv/kPBYZVTOOoNCxdtbW+Q9thJYq0VrKf9lpoS0vQkCLVbLXZgFXcZbDYKFbtzLCJgHcMfmuHjbud4IuvVTdSTQxIDtW61UTLRurnlG8mwyor+FpTfYFwu92eTqf3zy/Ksnz9gMrrp1N6xdSWGuklJhD24rIwAQJ9BQTCvmKJlq+fvKtTfpCJmQ8FBis3Du+CiNU3Mngn57Bi7AZWcS20pSVoSFGbQeNX6apK6TvR5flJjWIjy9hr5P1nob4NzXt9R3FkiarV63v7bfeqVeoTvTZSP+Rnfmw2XumtFzngnP1+37EW7vf75XLp8gTUjhusV+7HHIHwA8SfBAiEFRAIw3oG21r95B3wtPd6nEOwfZ3ThhpHpWHpqq3Nqdy99yV2A6uUZj7o/AaXoCF9e+sg8+t3flY1Mmzi2y2X1d42ilWvDpgIeHnwVeRvdy83XkqNff2/XgsDkkOvjdQP+Zkfm/Udrpc34JyWJw+1tN7H43E6neqfKVQ7NqBaG99OIGxkMZMAgVACAmEoycDbiX0unPlQYLBm46i0OjcHnOj1m92DixNvxcavTgX0qTa10JaWoCHFq9ywlwdfVdn+NJrn89koNqaMMUbAjTGv8UrUt/Q4pkTv61YHSDUxIDlU61YTLRupn1Nmfmw2BvWqpGEnWtzea61l+nq9Nl4wHL/l15vGOBzeDbvcFt5SfC8RILB0AYFwpjVYP3m/993jp2c+FBhcK42j0vFc9S0sHRBUextL4NO+A2NePZ1O9RY7fk770LZRbHApGrc2vgjfHkjTeG/qnxdFB5fu+XzWy9LO2/hevTZSP6fMvBNrzFf1Io+fM+zaYGON3G63j+Q2oFobt/yx2fGl/tiCQNjIbiaBfAQEwpnWdf3k/dF9j/xz5kOBwbUSaRxZ1146YONVkXoxx89ZKFSChjS4kbev2PjTEePr8c/7zBvF2ne15dVIw99vT0xtvD21KIo/fyaxpQivH1H8tkC9RgYkh14bqZ9TZn5s1ksXY04MhPdYOKBaG9tMpCOiIhUIG9nNJJCPgEA407qun7yrjjvIRIyz4BwoG0elQcQ+NtLlMRtzAPm2D7EbWMW10JaWoCF9q5qR8xtrdsCotPEyY0tAahQbVpb7/V61n2piwIC1cZe+badxwD0mE16v15b7TqtyVRMD6qhat5po2Ui9Ycz52Ixx23Ol9D7RIjas9VZrvWJhqO03ts/3goyc/nZcVMUxQYDAugUEwpnWb/3kPbK7/1h9zkOBMVXSOAT8KHuoP8fs5+Trxm5gFfJCW1qChhSpDdSfbzGsChpH5N9uuQz7HcLGJ+I0fv3vT8P6vaDfvgx5v9/rdJvNpiiKvveOlmX5itMt8tUBUk0MSA7VutVEy0bqh3zL7v0JG3uBBAfgZrNZ0FfBBcLYTc72CWQuIBDOtAHUT97VKT/IxJyHAmOqJM0w4lUFY/Zz8nUbr/8EaVofhoQAcwAAIABJREFUG1loS0vQkGK0gcZbH/vmmWrHGp/q8S2YNYpVm+o+0TeItm+5F0jjwq/2fDgcvhX8Ywd+fn6qFNrS+D8Ok81m05LlPt6i+rPXRurnlJbdq95iqomWuqiXevCcgN8ejA0lEMYWtn0CmQsIhDNtAPWT9+BzXuOKcx4KjKmSxlFpo8D4mQMGcGOKFnbd2MOLinehLS1BQwpboa+tVVGk8v92QazLuzcifLu1rHHhLu/ysUzAy4OvLdev+7WYtHe8x+Px22/Wl2VZf85kS+OvKqiaGNCfVOtWEy0bqRdtt9u9fm+94387RuKPCh32Z31vqzIGnGi5BXrYbsdbK3aP/e24jlciWyZAYFYCAuGsquPfnYl9OmwZqfy7Ewucary8EHAA8b6pwRde5uBaHyW/Fy3g9Ol0mkN5++5DY7wJyLLZhO97Gy+qjGyl9Sc9fnsuS6NYX/ayLOvIIzurxr60JTg1JtKPvdrtdvv9/nA47P/vX13ptXzLnn9scJIrhPV9aJ+TMjM01lr77vV9dVnfAxcI+3YmlidAoJdA+EFJr7e38DeB2Hf0tYxUvu3SUub3HRYMXn6hUef5fKaMzSkHkQGbaGO8GdxUGlcMuLevTdVjyfghb2PIbLzRrlGsbxkbY0BLeOuy/cbW3t4BNpa6sRLbZ7a8S33FAcXstZFG2/oWWuakPJYbb1du2bcBL7XUTpd2lXgZgTAxuLcjkJuAQDiXGn88Htfr9XQ6xe73qxPn7+nwfD4PGIXMhezLflQFjD2xoAcSfFAl+82JzWbTGB4+9meGfzbGm7AtKmypG3c4yAi+fjG58ZbLxh3oVcbGH8wIMmpvvOjXfgPk7Xar33/btwG07Hx9UwO64l4bWVYgTHAeDHJ09GrhYxaODbIsjTGS1iVAoFFAIGxkSTTz9bWT4/E4fuRRHxn0mrPf7y+XS/sIKRHK6LeJfeJ8hy3LcvT+TrCBxvHxe7kCTg8Y5k4gUnvLxngTkCX4LaP1Zv/t3s5aWf+Y0Rgk6neiNor9sen/vny5XOrC9Tf670qd/mrct5Ynpr42Wj0stL5XXea0P560voUBR0qvjTTWY30LLXNSZoZ6e27ZsWEvffs6aKcmlXyh2CApKzc5njckQOBvAYHwb6PgSzwej8vlUr+/a9hZLexa2+32dDot6Kv29dpJcK9RZR5ktFovQuw59Ws+VYmCTyy0LTVGiLA4AWu5cW//DDwdd6DjLZeN+9DxLV6L1T8Xa7wU2Wub1cKN/W2Xj8Aej8fxeOx1yOx2u+v12v5pUb0tCYRVZT2fz9j5Z9iXNt/3MPF0bBCBMHGFejsCcxMQCNPVyJxzYH10stvtLpdL+5gmnV2fdxr/QXhd49ucllvC+uxy0mVT3i8a/DpYMqnGePOtGQybH7Asv1nidzz38a9L2um4D78ffHxs/PfPj3V/3+7PZT5Wef+zcfUBGel9m+/TjUS9Pq34+fk5nU6NwfL1c4Wv+yw6brNuNaC+em2kUaC+hZY5AavjvWoap+ufDgw7ylrWanzf2c4UCGdbNXaMwDoEBMIU9fjz85PyslXLKXDAS8fjMeU4YHx9JA48A4Zx48s4Zgsp7xdd7tcslxUIx7QH6w4QKMuy+qmGjglwwLvkvMqAU1XfVZbFKxAuq77sLYHFCQiEEavs9/La+XxO8Eln3xPhgOVfN0FFxAq36fv9PqCAg1dZ1rNGGx/rP7jsf64Y6q7FcK2j65YEwq5SliMQQeDPvmXkAov7rEogjNDKbJIAgX8FBMJ/LQJOvb52MvKMNcPVt9vtIu4j7fWFn5HOoR7dEbD5tWwq5f20y33E6PP5FAhbWpGXCMQWGNkt/7n64u72FwhjNznbJ5C5gEAYuAGsNQq+n19/f9zs93smgeGCbi72ufNd4/drcjPXqGgbH+v/UZawfy7rZuMKSiB8pzBNIL1A2I6ovjWB8MNkKWex9E3ROxLIREAgDFbROUTB91PIdrud7TM2E18HK4piEd8kPJ1O7zWYYDrY0ZV8Q64QJif3hgT+FYjdOy3ubvbYn3IKhP82PlMEshQQCANU++u7gilvU4x9suy+/d1uN8OrQAlG8x9Eh8MhQEuKuYnEX63cbDaL+wz+nT9BE3p/O9MECLwLfHSwwf9cXP4RCN+bh2kCBIILCIRjSa/Xa55R8P0MfTgc5vYDFe+7l2Z65j9z/O1x+fFwFjfkeu8LBMJ3DdMEEgvE65deW15c7yQQJm6B3o5AbgIC4fAafzwesfvo2CfFgNsviuJyuQzXDLfm4/GY5Ec+5vx0mfQ3i242m0U/jl8gDHdE2hKB3gIBz02NmxIIP1gWB9K7SVmBAIFWAYGwlef7i+fz2YXBjzPK6y7Bab9NN229zPMmycQ/zPhqFdvt9vvRs4BXBMIFVJJdXK9A/eQSds7i8k/sT58XB7Letq9kBKYREAh7u7sw2H5inupS4e12m8NPPs7tWQX3+32STy7m5tD3OBcI+4pZnkBAgfazzPhXF5d/BMKArcumCBCoCwiEdZO2Ob4x2PFMnPJbhVPdI/qNYj5DjanS4Gazmfk3KtsO8v97TSD8k8gCBOIJfOtdQ82fTy/d0VAg7AhlMQIEhgkIhF3dyrI8Ho+hzkY5bKcoitgPIH0933WGmHP4QY4J0+DS7xf1O4Rdu0XLEYgjELtXFwg/hBcHEqfd2SqBfAUEwk51f7/f0z+k8aO/Xuif8Z408/PzM4d7RL/Vy7T3TE6YBjebzel06nRczXghVwhnXDl2bf0C3/rVUPMXl39cIVx/o1dCApMKCIR/899ut0m+hRXqzDf5do7HY9gfpVjK1zhT3jf73o5/fn6mbbHTPljonWLwtEA4mM6KBMYLxD5tCYQfwosDGd/GbIEAgXcBgfBdo2H6er1+9Jv+HCCw2+2CZMLZ3iP6zWS32yX+9YVJfmHivfjzfNRqw7HdOksgbOXxIoG4Au9dSozpxeUfVwjjNjhbJ5C9gEDY1gR8aTDgmbgoipHRaLlP9Ekz+JjJjc1z+P5k21Hd7TWBsJuTpQhEEQh46mncVJo+OSCNQBgQ06YIEKgLCIR1k//NkQYbz6NjZg7OhPf7PfbpcEy5uqy73W7jPWKnLMvJLwy+EFbwOJnX8S8Qfu0ZvUAgvkCXTnXMMgLhh97iQOK3Qe9AIC8BgbChvsuyPBwOH92lP0MJ9LqCNJ+oE6T4+/0+bCx83UM77TcG32V6VW7DsTebWQLhbKrCjuQo8N6rxJheXP6J/ZHo4kByPCqUmUBMAYHwU7csSw8UjXECft9mx9iw3HtE3wtbn95ut5fLZeSXKn9+fuZ2EXs1lwf97MRnt+hvAmkF6t1m2DmLyz8CYdoG6N0IZCcgEP6nyqXBsCfdlq21Z8Lb7ZZDLN/v95fLpfs1w8fjcb1ej8fjfC4Jvldxe53+50ib/R+uEM6+iuzgmgXeO5YY0wLhh+riQNbc+pWNwBQCAuF/1GN/CPfRBWf+Z2N+KMtybhe+0lTTbrc7HA6/Z+XXv9vt9uvzmj6dTvv9fp4hsMJZ0+VBVwj/0y36g0BygapjiTTx27UmL9OoN4w9OFkcyChNKxMgUBMQCP8lyTOHRDrddtzsz8/PvxXwfF4ul5nHno7lynCxxnj/XrnLmnaFcFn1ZW9XJhC7C11c/hEIV9bCFYfA3AQEwv/ViDQY+wTcuP3quaO322273TYuY+b8Bdbx24PvvbNA+K5hmkBigdidnkD4Ibw4kMQN0tsRWL2AQPhPFV8ul4/O0Z/JBIqi8EzXZNqR3mjkL0zOsJ8VCGdYKXYpH4FIPVW12cXlH1cI82n8SkpgEgGB8Pnz81OdJEwQINBX4HQ6TdJ5RX1TgTAqr40TaBfo2wv1XV4g/BBbHEh7+/EqAQJ9BXIPhPf73ZfWPk4M/iTQXWC73Y78/Yy+fVaa5QXCNM7ehUCjQPcuaNiSi8s/rhA2thMzCRAIJZB1IPQjE8NOpdYiUAl0/82MUH1Wmu0IhGmcvQuBRoGqh4k0IRB+wC4OpLHZmEmAwGCBrAOhr659nBL8SaCXwCpvFn11pgLh4JOKFQmMF+jVEQ1YeHH5xxXC8Y3KFggQaBHINxB6kMyAk6hVCFQCu92upWdZ+ksC4dJr0P4vWqDqZyJNCIQfsIsDWXTztvMEZiiQaSBc9FcHi6LYf//nK5Ef5zl/xhCofi9khp1akF0SCIMw2giBYQIxeq33bS4u/7hCOKwhWYsAgY4CmQbC3W73fm6Y8/R2uz0cDufz+Xa7PR6PjvX6eDx+v9x1Pp8Ph4Pf95tz/S50335+fjo2xYUuJhAutOLs9joEYneMAuGH8OJA1tHOlYLAfARyDITn8/mjK5zbn6+f5rter90TYHuTejwe1+v1cDi4fji3ul7i/uQwdBAI27sUrxKIKhC7Y1xcJ+YKYdT2ZuMECGQXCO/3e+wzzZjtHw6H2Ndefn5+PE1nTB1lvu7xeMyh3xQIc6hlZZytQOxuViD8EF4cyGybrh0jsFCB7ALhPG8W3W635/M55e+5/b7X+Xx2N+nHSdGf7QLrfpDMeycuEL5rmCaQWKC9Ixr/6uLyjyuEiVugtyOQm0BegXCGTxbdbrfX63XCZne9XsXC8cOLHLaw2+1SfmYx4UHxfD4Fwmn9vXvmArF7VIHwQ3hxIJkfIIpPILhARoGwLMtZfYNu8ij43phyjoVFUZzP5+v1+nGC9Oe7QFZpUCB87xxME0gv8N75xJheXP5xhTB9I/SOBLISyCgQnk6nGOeVAdt8JZAZXmw5n8+zyswDbPuucjweq4qQCb/p5ZYGBcKszoIKO0OBb31RqPkC4Yfk4kBm2GjtEoFFC+QSCB+Px0f3N9Wf+/0+1LNDY7S8x+MR+5PIqeQ/3ne/3//+MseHoUz4obTZbDJMgwLhx3HhTwKJBeodUdg5i8s/sc/LiwNJ3CC9HYHVC+QSCOfwXM2iKC6XyyKa1OVyWfGlwvabdWXC94FXnmlQIFxEN2UnVyzw3gvFmF5c/hEIV9zaFY3AHASyCIQJng/x5xlrt9vd7/c5VHnHfbjf7/N8Iuuf1C0LdLxZ936/rzgPt/h8vJTJL0w0HhEJOo3G9zWTAIHn8/nRFwX/UyD8IF0ciMOEAIGwAlkEwtgfrX10rPU/37+oFrb+om6tLMvj8VgvzkLnHA6H7jfrrjIP96q4zMcHAmHUvsXGCbQL9OqsBiy8uP4t9jBmcSDt7cerBAj0FVh/IEwwsGs/Gy29nz2fz+0FnP+ru92u/nXBPw+VsizncKdxet6iKH5+fv70WfcCCfqNdQMqHYExArH7vcWdlwXCMc3JugQI/Cmw/kA47TWuaX9j8M/q77jAcr9WVxTFyCpYQR7uNbRa3L3NHdtw38UEwr5ilicQUKBXrzVgYYHwA21xIAEbm00RIPDPjfrrVpj24aIjo8isqmaJmfB0OlU/KTEG836/b7fbj9PnKv88nU5joNa0rkC4ptpUlsUJxO5gF5d/XCFcXBu2wwSWJbDyQDjh5cE1pcFXm15QJgz+2x5lWc7ndyxjDJW22+2Au2qX1dn12luBsBeXhQmEFYjRy71vUyB819hsNosDCdvebI0AgTUHwrIsp3pW5PrS4OtQmX8mjBpsbrfbKi8VhrqUuqb+VCBcU20qy+IEPuJK8D8Xl39cIVxcG7bDBJYlsOZAOFV6WWsafLXsqVT/HBAk+5nH8/k81QcNfyL0XWC/3y/r11CSda8CYTJqb0SgLtC3K+u7vED4IbY4kHqbMYcAgTECaw6Ek/yMXg4/3Tbhjbgf57Dqz8Q/7PF4PGaIUGl0mdhut+v+5GJMt+iH6UfqWZ3ASIEundiYZRaXf1whHNmirE6AQLvAagPh/X4fc7YYtu5+v2/nXs2rsU9O3f0nvMa10FgoCnY5DF0h7KJkGQKRBLqfAoYtKRB+uC0OJFLDs1kC2QqsNhCmfwRIURRBnmm5iLY44fczq9PYdrudw8/lLSgWioLdDy6BsLuVJQkEF6j6+UgTi8s/sT+EXRxI8CZngwQyF1htIEz/8I/cHtKYYMT8bShQFMXczl6Px+N0Os32u4X7/d4Nor36+gTNu9f+WJhAVgLfOv9Q8+d2BvmzcgXCP4ksQIDAGIF1BsL094vm+QNu6S/Dbjab3W73eDzGNPqo616v18PhEGrUMnI72+32dDrNmStqXYzZuEA4Rs+6BEYKjOz6/lxdIPwgWhzIyAZmdQIEPgTWGQgTB5XtdpvPzaLvDagsy/RXYrfb7fs+zHP68XhcLpfYn+l+nNGrP7fb7fF4nMP9tPOsnS57JRB2UbIMgUgCVW8WaWJx+Sf22WRxIJEans0SyFZgnYEwcUrJ7WbR96Mlwbi5PiBY0C8llGV5vV6Px2OCNvn7TKPz+bwgnPeGNLfpBA17bkW2PwTmI1Dv9sPOWVz+EQjn0zjtCYFVCqwwECa+XzSfJ4t+OwDS3yF5uVy+7cyc5z8ej9+rdufzeb/fB/m24W63Ox6Pl8sl548kItW4QBgJdmWbvd/vt9o/N2mPr+Ww8a++NYHww2RxIOPb2Pq2UJZlrTf6Z8b6SqpEMQRWGAgvl8tHTxf1T+f+x+MRVbi+8d1uF+NgSLzNV9/9iojn8/lwOOxb//1+T/V8Pr/in1YXu7IEwtjCC9r+4/H4HVSdz+fT6fQ6RuudUuOc7Xa73+9/f5z2fD7fbrc8v1kwrKIbPQPOXFz+cYVwWENa5Vq32+33KXHVsKH758uv7ut8Pl+vVzcTrbJtjCnUCgNh7H7z/ZyUw8/Qd2le6X+l3dCqS71YZrCAQDiYbh0rvhLg4XDoPth6PzV8m359v/d6vfpMp72dfAMMNV8g/JBcHEh7+1nZq4/H4/Xdk91u91FxI//0TZOVNZUxxVlhIBx5ePRa3Un91fjSXyT0xJQxh711/xQQCP8kWt8Cr2/8Bg+B384pu93ucrk4iTQ2pG9ooeYvLv/E/qR7cSCNzWZlM+/3++l0Ch4CGw+ioig8i25l7advcdYWCBMM46pjyeXB99aW+CJhnr/z8Q5uOqpAgp4k6v533PjvlfbfgeC0/zruatTFpv21mFA/E/q6iyxebYb6LdPfDPznTlbn2UgTrwsjf+7G+AVCBf5MAuHvAwLGm4/Zwhy+cff6WeMED6JrPLiKogjya1VdDvMxNXU+n0MdXFFPLgva+NoC4fl8bmziMWa6A/u9oSd+ls86vkb4Dmh6VgI5BML7/Z7ms+eW7jdUxhjWeF4Dr7A3hbYUtv2loihGDnFiZ4ZQT1BLcHC1U6d8NVTAiF25v0PzYQdRwLUSf6xcbwa73W7ab6Ncr9fYFV0v9bc5+/1+TOtNcJiP2b2A7XY1m1pbIEz2xMtQp8bVtKTn85m4I5u2415TxSlLXSDByaz+pinn3O/3yYPQhGnwfr9PPvr8Ng47Ho/DPvmO3QOHOuslOLi+2aafH2rMGrtyJw+Ekx+PE6bB150aU10SbD8ottvtsI46wWEe6uBKeead83utLRAmO6KGHSFzbgrj9+16vbb3LGFf1ReMrzJb+CaQ4GT27a0TzM85DT4ej9hj6yAd3el06vuZV+xyCYQDajbUeSp25U4bCHNOg+fzefLP5v5s2Lvdrm9LTnAO7btLCc6ti36LVQXCsiz/bNZBFiiKou+petGtpOPOl2WZsl+b9gTW0cRiCxVIcDKbSibbNFiW5eTjzl4noKIoev3mauzMIBD2qr7XwqHGrLErd8Lz6eRH5VTXBq/Xa7JrGAOabn2V/X7f/eaFBOfQUAfXVOfiub3vqgJhgvb3OkI8TuZbO07Zsx8Oh2+7YT6BkQIJOpORezhs9WzT4OVySflxVX0sNXjObrfr+H312JlBIBxQiaHGrLErd6pAmHLM0Fh9x+Mx/ef79/s9doU2FjbIzI5NJcE5NNTBNexkur61VhUIkz1Rxm8efDsSfn5+gvQ4XTbiuTLfasH88QIJTmbjd7LvFiZPg0VRpO885/DsnC4dWvsyXZ6rHHuIKRC211Hjq6HGrLErt+Mov2+f0778HNJg+x7GeDXZSLWxQQaZ2eVTqgTn0FAHV4xaXuI2VxUIT6dTkLb+50bSf560lLaV7K7dVx0thcV+Lk4gwckssckc0mDHK10BZS6Xy5/9+VIW+HMQFjszCIQDmkqoMWvsyk0fCDNMg+v4cKo6CtrbTIJzaKiDK+AZZ9GbWlUgjN1jvg6DUCfFRbeblp1PUwuvukg/vmwpuJfWJJDgZJaSK8M0WJZlyr6oGiTFnmh5nlns8oY69yU4uGLXQvfthxqzxq7c9sF98M4qwzR4vV4Xetd6S2vf7/ffLpAkOMxDHVzBm/dCN7iqQJjm67mJ+83FNayUt0PoDhbXPJaywwlOZskoMkyDkxe5ZQg1/qVv33qKnRkEwgF1F+okFbtyUw5sckuDi3ucVa92XhRF40fzCc6hoQ6uZOfimb/RqgJhr0Y8eGFNsL1NJ+gFqrpLeQ5rL7VXVyaQoBmnEZs8Gn0bLsQrfuLfv6m6o5QTjc9FjJ0ZBMIBVRxqwBC7cpOdTDNMg7vdbkDLWdYq9TsXEpxDQx1c8U5Gy9ryegLh4/FIc/x8uz6+rIqPt7cpv0aY7BwWj8uW5ymQ4GSWoOAZpsFk3yRPc7ppeZd60o6dGQTClur49lKoMWvsyk1zMs0tDU7eA39rljHmfzx+P8E5NNTBleBcvIi3WE8gTND4NpvNdrtdRL1Ou5Np7t3dbDZ+eWLail7xuyfoT2LrTT4WqSeW2EWefLgZY5jVss2Pp7bGzgwCYUtdfHsp1Jg1duUmCISTH54JyvjexU3eA39rk/Hmv2fCBOfQUAfXe63lPC0Q9js0Qp0R193mYp+6qjpTHetuSBOWLsHJLGrpJh+LbLfbxi+WRCp1WZaHw6HqGbKaqG7Wit3xhupvExxc82kAocassSs3dliaPA1Wh0mkLuhjszncuN54lFV3syc4zEMdXB91l+2f6wmEaQ6/2J3mOhpisufKhBqgrINdKQIKJDiZBdzbj01NngarMcHHjkX6syzLHL6l0zj8es18DXZjZ4ZQ/W2Cg6vFKvFLocassSs36thGGkzc6qZ9u1f/n+AwD3VwRToxLW6z6wmEaUJI1E5zca3n2w6nqYvNZlMUxbd9MJ/AGIEEJ7Mxu9eyrjQ47WBoqne/Xq+xM4NAOKByQ41ZY1duvLGNNDig2Sx9ld1u9/PzE7sUoQ6ulvNpVi8JhP1a7M/PT1btY1hhEwymq2obtofWItAukKANt+/AsFdzS4PP53Py4WbVF00+EftXzgTCAVUcasy60EA4+eGZ+E7RBCeOAY1wklVid0ebzSbUwTXsbLu+tQTCfkeK9tflGEjZJ3bZH8sQ6CuQoA333aU/l5cG+/Xmlu4pIBD2BPtn8VBjhiUGwtzS4OQ98ID2uehVQh1cf55bM1lAIOx3OGh/XQ6MBIPpqtq67I9lCPQVSNCG++5S+/KTj0USf2/wVyPZrelVb5P5hEA4oAGEGjMsLhBKgwNai1V6CYQ6uNrPrfm8KhD2an7BPu1bdwtLMJiuqm3dkko3lUCCNhywaBmmwTRPEav6GRObzUYgHNAMQo1ZlxUIp02DRVEkvlPUc60GHBrjVwl1cAU8Fy96UwJhvzap/XVp7vf7vR/riKW77I9lCPQVWFAgzDANpuxhRnROa1tVIBxQo6HGDAsKhJOnwZQ/ePM6s8SunQENL4dVQh1cfYcHa11eIOx31Gh/XY6Ex+PRj3XE0l32xzIE+gosJRBOngbff4m4L/Kw5cuyTPC4ghF90mpXFQgHVG2oMUPsyBHqKaMZpkH3rg84LoKsEurgGnYmWt9aAmG/Zqn9dTkGEgymq2rrsj+WIdBXIEEb7rtL9eUzTIPP5zP2yLjqW0x8CAiEHyBd/gw1Zojd7IMEwgzTYIIfV+jSzPJcJtTBVT+35jlHIOx3HGl/XY6TBIPpqtq67I9lCPQVSNCG++7Sx/J5pkEfxlddX/oJgXCAeagxw/wDYYZp0N0KA46IgKuEOrg+zq3Z/ikQ9muc2l+XQyXBYLqqti77YxkCfQUStOG+u/S+fJ5p0FcHq35vkgmBcAB7qDHDzANhhmnQ3QoDDoewq4Q6uN7PrTlPC4T92qcfpu9ytCQYTFfV1mV/LEOgr0CCNtx3l6rl80yDz+dzt9tVB76J9AIC4QDzUGPWOQfCPNPg5XIZ0B6sElAg1MFVnVsznxAI+zXOIPfZr77NJbutqyiK1WMq4CQCsw2E2abBZL1Kv1PCZrPb7X6frHM+n2+3W8vjDR+Px+12+30a/vl83u/3S3wujkDYt23k8MP0eabBx+Mxz0O4KIrf4/R8Pv/8/Nxut7Isv51Ab//373w+H4/HhX7WJhB+q9xh89cTCNP8LJVA2KWdJRu6hRqgdCmUZbISmGcgzDYNzvBm0cPhcL1eW8Zbfx4v9/v9crnEvvIzIMN8WyVUf5vg4PpWhPTzQ41ZY7eTYWObadPgbrd7PB5/HmgxFohdHX0b6m63O5/PLR9I/YlQluXPz8/xeJxn0G0ECXVw/YmTyQLrCYRpzjGhzojrbl7J+krVse6GNGHpEvQnfUs3eRocNmTsW8zG5ZN1KY3DjveZu91uZA6sF/DxeFwul+12+/5GM5wO1d8mOLjmoxdqzBr7EBhwdE+eBsd8HFM/DLvPmc+TRYuiOB6PY3JgY6lfyXA+B9G3PQl1cDUiZDhTIPzW0prnb7fbDFtJ3yInG9kcDoe++2Z5Al0EEoxZu+xGtczkafD3XsdqZxJPpLn7o7nHf5u73+9jjz9+fn5ij/vfCtR7UiDsTbbZhGozsRtG30CYbRp8Pp/JRjgt7e33+zLn8zlqJH48HqfTac4XDEMdXInPaLN9u/UEwmQ/hh71CJxtQ+m+Y2VZtvRiYV/qew7rXgpLZi4wq0CYcxosy3Ly4dd2u00tgpihAAAgAElEQVT5OLGfn5/Ji9zYUYcKhPf7ff/Xv8YdCDhzu93+tQthXg919WZWgTDnNJjsGzEtrf10OiUbiD4ej2mru8VBIAw7TltPIHw+ny3tJuBLmmB7E0wwkq5qUyBsrwuvDhZI0Iw77lvOafCXaPLh11SdzOQFr7rZaiJUIOzS8qs3jTQxVbV2KXvjMvMJhNPGg91ulywL1Sti8h8e3O12oT5iqJeuZc79fp/hg2eMxluqbMBLqwqEaT5VXdyJZECzGLNKynGM7mBMTVm3RWAmgTDzNDjt8Gu73U4y9qqa5dwGYQJhVTXpJ2YSCHNOg7+VnnJ4U/8oZPLB57TFr4MYAYbtiFYVCGP3mK/mmPKkGLay02wtTS286mLa4VoaT+8yicAcAmHmafC33iccfxwOhwkvRFRtvizLaYfg74OwlOe+9/eNMT352Lqq4o4TsU+sXUCmbYrTXht8Pp8Tfj5VFMVMws/tdpvPtwpnYtLxEJ7/YqsKhKfTKcaZo77NOQwU5tm2Un6BcLNZVeudZ4Vmu1eTB0JpcMLh1+l0mlXLn8lPYAuEE7aKaQNhWZbT3jE4hw9opvp8aqrbRL+19sfjMW1jqMbkAuG3Oho2f1VD6mSHa8oHDAyr16nWSvk45t8f3pmqmN539QLTBsJp02BRFBM+U7RqWlOloDmUvUKoJubwqFWBsKqO9BMTBsLJ0+DxeEwP/vGOU30+Nfl10Q+H15+TN4lXJhQIG2tn8MxVBcIEY7hXK5xD9zS4yqOumPKWEr85EbUqM994gs7km/DkaXAmd2Kn+U549WHza2KeafDVVCbPhALht2M2wfypAuHkQ/+ZDLcm+Xxqnmnw1donbxibcL/pkuD4XcRbrCoQJrtfsSgKd43W23fij9C6fOehvpPmEOgiMFUglAZftZPyXoMqE845Db5Yps2EAmGXriPSMpMEwskH/TNJg5P89uCc0+CrkU/ePFwhDNvbrCoQpjxo5z90CNtQumwt8WBFX9ClUiwzTGCSQCgNVpUVe/hbhcBqYm7fG6woPiYSd7OVz2azEQg/6iLln7GPiPoHrJMP9+eTBhOcDt4PtM1ms91uF3HVYdrfiTUIDNsFrS0QHg6Hj+Mq0p8pT41hqzze1mKfsT6qchHdZTxtW44qkGAE8LH/0mAF8ng8Pg722H8u6/7zlHfmv8unPOu9v2+M6Xr+qZrfPCdin14/QKTB92aQ+IgrimIm9+2/I3ybnvDMJRB+q5Rh89cWCJM9V2az2SzoiB3WOHqtdb/fY5y2v23TE2V61Y6F+wokDoTTPst7buOPlN34ZrOZ/61Z9dY7yVP+BMJ6RSSbkzIQSoPv1Zrsu0jVaGdxN6BNdduCQPjeUMdPry0QJhjGVQftfO5nGN8Oxm8h8UdoS7m/azysLUwikKAnqco11dn01ZXNLQ2mvPP/JbDEj/Yej0f6XwMTCKtjNv1EskA4eRqc28k9cf+80IFl4hHgq+sWCMN2RGsLhM/nswpsCSYej0fY+ljo1tLf4uWXPxbaVJay28kCYeLRxkevOMM0mPheg8vlspQ2+bGf6R97KBB+VEHKP9MEwsnT4AwvjiX7ItKCvjpYb/mTfJlQIKxXxJg5KwyEsfvN9xHVQj/LGdNiGtdN/+GQLxA2VoSZoQTSBMJp0+A8b5U8nU7vfWzU6aXfeZ7yZOehMqH6lmHbiV3X5/NZGqxXTeL7RRedcBKcND9OB4vmqje2yeesMBAm/tzURcL0lwdTflAd7xAty/J2u/1e6vz9Nv/5fD4cDvvWf7830pzP58vlcrvdtLp49fLacoJzmzTYWIkpvx23xJtF39ES970pO96PkV/wPz+eofKuOs/p2IHwdDqlPPTqFTrDa4PP5zNlL72CCwwpr6b6HcLgPdUKA2HiO45SniODV3+QDSbuAjabzULv8no8Hq/4t9/vg3z/Z7fbHY/HV0QMUpU2UgkkCIT1IVGyOfO8Nvh8PlMmnBUMv57PZ8oLqilPdrGPBYEwtnCv7c8zDT6fz2R3P63j161TduACYTVcCTWxwkCY/pkEOV+2nmTcvKDrY2VZXq/X4/G43W57nSAHLPw7XDufz0u/6BGqaxu5nUka9oBKH7DKbNNgys/j1zH8ej6fZVkG+XSpS0MSCEf2KmNWj32FsEsDiLTMbNPg8/lMdnAt7hOKb4055UdUOY+9v/mPmb/OQJiyRS76e8Bjms5rLJIg53ychLbb7cjdTrD64/G4XC5TncK32+3xePTcnTEVvdZAOOc0+Hw+k91usJrh128jT/YrHQLhmC5l5LpTnU0+zr/B/5xzGkx2u9lqPp9KfJeHQDiyV/lYfZ2BMNlhXHWOc3tQ8kc1R/ozcfCutI/H42wvEl6v12SD2grk28R2uz2dTrO1itQsg2x2lYFw5mkw2efxaxp+vT6Y+9YDhJ0vEAbpW4ZtZJWBcM5p8Pl8JnsgxZo+n0p5n61AOKwz+bbWOgNh+rtGM7ybedoRc1EUr6eifWvZiec/Ho/T6ZTs9pK+47z9fj/zU2/i+vrz7aZt3n3rt8vy80+Dyb5/so5vD7634TTfdBII380TT68sEM7wB2/qFZrss92VPTU9WU8uENYb7Zg5qw2E6S9erexT5/ZWlfKLKy2D3e12O/mNkY/HI81orMWh40vb7VYsbG/Y1asrC4TH43H+Y45kD/Rb3zXzNDfFCIRV/5B+Yk2BcBFpMNkNC+v7fOr5fKZprgJh2I5otYEwzQnyYyCe8nwZth303Vqao/2D99uf+/1+kiepLCgKvtMVRSEW/tng1xQIlzLgSPMp3tJ/e/Bb003wmwEpT3DvXVaM6cXdpDerc+6YGllKGnSZ61tX02V+mk/3BMIuddF9mdUGwufzmeAEWe8WlzL26t5E6kvO84JYymsgC42C783V1cJ6w36fs5pAuKAeKc2Qd62fhiT4vpNA+N5FJJ5Oc3S8nyNiTC8lDT6fz5+fnxgCH9tcxEPyBjT1NDeRCYQDqqZllTUHwjQfUXwc3pvNZq0Djlczmkq17lyf8/piYUtzD/LS+Xye7XcF6ybtc6a6uBqkIqJuZB2BcEFp8Pl8trfVUK/O/9bZYQ07wQUNgXBY1QRZawWBcEFp8LfK0jy8d8XPI0zwDUyBMEjfUm1kzYEwzUcUjcOUtWbCOafBqiK2222kbuJ2u6X/mY2qXPEmTqfTWkfJVU/Xd2IFgXBZaTBBntlsNmu9X/TVvGPfFCMQ9u1GAi6/9EC4rDSY7CdwJvm2S8Bm2bKpBMPFSCO9lkKt+6U1B8KUT7+tD9bXlwkTHN51xsFz9vt9wEdHlGWZ5gtOg8s7csV4KXqhHejSA+Gy0uDz+UwDfrlcFtogu+x27D5KIOxSC5GWWXQgXFwaTPOdo997miK1ljlstizLkcOSP1cXCMNW9MoDYZpPnb+12jVlwmWlwapGglz7ut/vq7wwWClVE0G4wvZQU20tTT6p5MNOLC4NJvvJrxV/Hp8gVAuEU3VHyR7bGLYjem1tt9sF/HA2WRXEoPjY5uFwSFacSd4o9j0LAmHYal15IJz2IuFqvk+40DT46nxHPlQzzRcJPs4TE/652+3WPWju2IEuNxAu9EspaQ60jrW/0MVifyQvEE7YMBZ6hXD+P3/aWKexD6XXKX7dNyw8n8/Y9ywIhI2td/DM9QfCyQd2i3u89UdjSjNQix2Bdrtd376jLMsE34qOXfAB2x8ZoT/az0L/nLzfGFBxi/4EKsF4N2WemarZR/1IPiXgsPbffa3FnZcTHCDd9TouudA0mOBi+wuw75hkql5l8PvGvpawesDB8sNWXH8gnMO9Fil/EWFYO2hcqyzLef7CRMezUX2xw+HQ8d6V+/0edWhV37e5zVnohabGljxg5kID4eKGuVXVJBjv5tCko/bYAmHVXNNPJDhAgp+DiqJY6OPK0vT/6VtR4neM/XvgAmHYCs0iEKY5tts708XdibfiRHQ+n9vPUvf7fTU/LNHeLNtfXegHGUG6yDl0Gu218+3VhX51OcERt1CZXu056g0dAmGvugi78BID4XKf6xv1OHp13et+4nHV+L+dp4LMFwgr5yATWQTCZE8Qbm/iRVEs5Zbxy+WSYHzWzhX11ZafZY99k0PUcgXf+HLv+RnZPy43EC7xgX5pfoQwh9FD1HYrEI7sVcasvtBAuNlslviMqwSBMOXRNKbhjVw36p1WOXTpI/17rZ5LIJz2caPvw/SwP4fQq7K7LPx4PJZ74nl37jK93+8/OhRpsO6WZyaMOrCuI4eds91u26+Bd+kKEi8TVqBxa4szGVAFUe/RSjmEbazBgDMXd3P1os/Li7s4nyAQLq4FDuiOYn9j62P8NmwPrVUJ5BIIEzzvqPu56vfHZ/68a7GqoZQT5/N53RcGG+voeDy+vlgoDTb6vG77yWEw/X6sLToQbjablGP3d7dh02me6Tds3xa31rejePz8lI1q/N62b2Fxw/FFB8LNZrOsh1cn0F5cCxzWE0Z90KhAOKxSvq2VUSAsy3JWaaflrsVvtRVv/vV6zeSn9hpHCUVRRH0YQ+ObLmtmbtcJlx4IN5vNgp6hkkB7u93G6z9nteV4HYtAOGFFJ4go8VrOZrNZ1gNmEmhnEmaiXmvNxDBZt5NRIEz228e9etXJY2HmUbBXZWW+cFaZMEFESdCclnKnVgLtlGEm2fm78Y3ifWknpWHso2Nx12cSRJTY5gt6jEoC7UzCzOVyideuMjFs7OdjzMwrED6fz3gnyzGN/vfT68Q3kf7eAXg+n3O+KjimvrJdN59MmCCiJGhFS3nATALtlGEmxqm6+zbjjWVTGsY+OgTC2MKN21/KA2biHUQVSyZhJmrfnolh985/5JLZBcKo37mvDvXBE4fD4efnZ2Sltq/+8/OT5++tD64UK74LLOWM3n4U/Plq1NPYu2fs6UU8YCaBdsow82frirpAvLFsSsPYx4VAGFv42/YXcdtCvIOoYskkzETt2zMxjHq+eN94doHwt/BR72mujvYxE0VRHA6H6/Xa8VfU32u0cfrxeFyv18PhMKtvUY4hsu6EAgv6clrj4dBlZtTTWOK6SzmO72JbXyaB9vwR6izD5sQby6Y0jH2MCISxhVu2P/8HzMQ7iCqW+SMM638+1oratwuEH9oj/8wxEM72xtGqp3if2G63h8PhfD7fbrfu+fDxePweKufz+XA4uC/03dN0EIFFfMo7pnOMehoLUgW9NjLzDJ9AO2WYGdPwxq8bbyyb0rBX8x6wsEA4AC3UKvN/wEy8g6gyHH+kL2ILUft2gTBsG8g0EN7v9+VeKyuKYv/933LLVXWUJuYvsJQvpw3uLqOexiap3zln+ATaKcPM4FYXZMV4Y9mUhrGPEYEwtnD79mf+gJl4B1HF0v3z/SDdwlQbidq3C4RhqzXTQDjPJ45WPYUJAvMXWPcDZqKexiap3Dln+ATaKcNM2JN0363FG8umNIx9jAiEsYX/3P6cv44e7yCqWDIJM1H79kwM+54CBi+fbyB8Pp+erVL1TSYIDBCY+Y2Ig7vF5/MZ9TQ2gDrIKrN9wEwC7ZRhZkzDG79uvLFsSsMgDb5lIwJhC06yl2Z720K8g6iyzSTMRO3bMzEcf1LouIWsA2FZlvP8FYqqyzBBYOYCsR+K27EjC75Y1NPYhHWackzfvVISaM+z4N2Jui8Zbyyb0jD2MSIQxhbuuP15junjHUQVyzwL3r2f6bhk1L49E8OO1OMXyzoQPp/PRX+ZsOpZTBCYSmD+jwcY1ktGPY1NVVmv953hnVoJtFOGmWFNLtRa8cayKQ1jHyMCYWzhjtsvimKG36aLdxBVLJmEmZ+fn6rIwScyMQx1avhzO7kHwufzGbW9Bj8AbJDA3ARWeeNogogyYT3O7U6tx+ORQOPP0+E6Foj3XDGBcMIWkiCiJDgGG99ihl9HT6A9t044UtuO+jNvAmHYWhMI//G8XC6N/ZSZCQSKovj5+fF9zgTU8d5iff3yugPhZrOZ269gxWuc1ZbDnjtnu7WqvMEnBMIJKz1BRAneYLpvcG63LZxOp+47P2zJxV2jHtb4BcJhbpOsJRD+j/14PA47qq01RuD9yYe3281XOsdgTrjuzJ8hPqBvXX0gnNu9vgla7wzvTPt/7d1roeLKtgZQJCABCUhAAhKQgAMkIAEJSEACEpCABG7vzbnsdHiFkKo5s9boP50FIVUZVXl8efboma9/cj6fy0kKhK/xi377swPhZDLZbrdFAT+aeNEYc11Cf+SVNffIRXetf96R6HvAmp8IhP9pF+245TbSo57y/SNJttttuUueRm2VvPI/7AKYHx8IJ5NJqhhfoXv/hr2Hov1WIPxvd6H60I8PhJPJJM8SWiEQ1lyaqvfW/wos2m/zdJj/ZnjMQwLhX61XtO9W2OMZVxHPIsT5fK5wwUY2q8VisVwu/1xGcv13OBz++FyH1+v1YrFInpPTvtLgryW88x9Fd6zz9L08V2pVWPemOgXRuSd+NuJutyvXu2ruwpabi+uU/6xaP5ONHrvCAlLa/O308zxgpsKjJWazWXSfqlF+0f0WgXDYJhQI//L0Ioq3q+yhRniWBm/tcTwef/wmcLFYbLfb7iu10+m03+9Xq1XRlWzvJh7dPtats90P/JJAOJlM3i6J9zglPqmwsP+Ga7SKntkQCEv0/I7TrLCA9F7zD/jDJA+YqbP+79j04x2t6BXsqU4pj7eNmjUXCJsa/wzLhAOu3J9Nqvs+6H6/n81mz6Yz0s9ns9l2uz2fz+3O98nf12SYSiDbbWmfcLbHrbNDcGu+1b//bn9WHsjwgJkKFwXUzDPt/lTr76KxoSZg6UVgdEevirZsS3s6ne52u6jDjhkuWzgejy2TEn92PxZca/0xcDmlN6M/HnDg9ng3OYHwgdD5fPbQyxKrv+s0u6fBa9v8CU6bzSZq4zSsw2KxGHYVlg1ndLtZD5b/fz8qvSVr9qvbDlDUQ5UyJPmip7Zu2s+a+8d8XnQ9KRAG9pNqgfD2pLeilx/fFsmHAxmu7n5YsWE/zDCbRbt06bX6sHtTRSlGMXGB8GkzecbMsOu+yWRy29I8RX/+xel0GnVKn81m5VZeee66/DH3RVQLhLc0eLlcTqdT0R36F0t0+ANmKty0k/BlG89XeH2+Kf06R4GwT6sM9Js6gbC1jQ7cCyq3uezYIBUuTfrz1ICOlRnpaKX32cI7yUjb5Vm1BcJnMv98Hrg2fLHrNtKvWluaV+7PvzscDhVW04ML1zlvdjweo04xNcU+PQP8vLUjv6kTCJtp8Dq3dcptttdt+L4yNRugzoz/7EPypU/pCIQ1l4hWWRUC4cNtdNQ2JfwBM3XAW638w/4sfXxTIBy2wwiEbzxLb2Jve2M/e2DYO8VH9GqK+Xxe+QatCvdive6r4eea3izS3b6ukE+eBbDtdvtauNy3sWG+3HzdpvyzD8mXPh4vEHZbeRQZq3Q+eZgGr09VKL1bf1s8WwPD7jZ82ip1tqSVdw8+Rfhm/Ar3YQqE3zTQ/W8FwnuT9ieHwyFqhdhaP470z9Vq9eUDVNpN8u+zf/Kfv10ul4PP+D3F/Sf7/T62x/6AjVyFQHjfcLdPSu/Zv1iTBLZdnXMRIYvkrWWLDpRe6gXCos33euKlA+GLy1gqrAyfrZGeHTV7bTXIt3VOBvzgaxZK30DoKaOD9PPmRATCpsbT4SQX4z1baWb+vOj6LvOrKQK3ZJfL5Xg8lt47fNHrYuf96WL8yRcV9oFeVCfwWceBD5ipE4P3+/0L+fF+VeEmTIEwsHsEBsLL5RJ42cKLpFq0OSpsAiaTyc+4oOZhQ1Q4wOcM4UP53h8KhF3pzudz/lNSL/bR6381m83qnG3Y7XbZbiyMvfTu2qcDM+F0Ou26XGUdr8LewOtZD2y+qCu1KhxRnkwmP/Wq0QqbJ4Hw9TJb9NvYQBj7SIWogzh19ppOp1PRnhMy8dIPuLo2jUA4bOMKhJ95Br6cp866aahSKl8teX37wlCV/3I6UUc077tyYKiI2oTfI/T7JDwQXi6XOtcsPeztIed4K5hfZ/bnXTV6Pp8rXBEgEPZbmQzyq/BAGHvZQp2Dy62WqnCOazKZ5NlhaM3+N3/WuQNTIPymje5/KxDem7z55HQ6lV41P9xFG8uH0+m06GWiL5onw6spQvakX5hEZcJsDi+IHn5VIZw8LLf1YZ3N6sN1S8hS/LAmg38YMmutlh32zzrHDgTCYVvto6mV3uvoEkuitibXSyvrH8eps/r9Me9qavbnCsen3EPYBB9kWCDsyfhjXpU+7M7WYrEIv/4h8NUUNXeYunfcCjcX3feisV81miQQXi6X0juC9213+6T+8dc6h+R/3h5YHbea67dbJyw00CX/dF/HVhiz9HqgI0jI1uTaB+pf7F1tZsd+QU2r/9c5PlUtEJ5Opz83AW02m+Vyufj7358+udlsdrtdyBnsFvv3fwqE/Q2dKmxuqqfTaYYb527NWeGOmubsTyaTwKdx3Ob62UCdI50tkPpx4tns9/g8TyCsczVgq+2uf9Z/FVi1jvqT9sAq9NVrfxAIe6xJhvpJkkB4uVyqLaT3K6WOqXUo8/P5fF+HEp/UXLKGwnkxnTrHp0oHwsPhsFqtuj+fYjabrVarUe/2CIQvenWnrxI+0aTECuv1NEu8WKKT/vOR6gfC5LuY1dbRt66yXq+ft0/2byrsZHcnqPBCp1urtQYqP2Cm2iH5n7QHVjoq3LpETbRboYUGKkeL7gv7szFLt/JHIKUr86LRK29nq203Rx0kmp22wqbz1j0KoX25Vz+bzVKdHWm2zuthgfC1T6dvr080qXPN9G1JSDKwWCwKLZOd6J+P1P24ziCS9a9meT7rj7+pHypG/UDtClu1x+305NPAx75Xvh10kOWxy0Qq71k+adhvP67QUW+YAuG3rfXF70tnsI8C4fl8rryFvXXC6XRa8/K8aqdDay5cX3TD9z+tFqFLnCHc7/dDdezZbDa6TYxA+L5/dxzjdDrVPyt1W0vWH8h8FKTOI49v5vWvrOvYJ1ujVdu23WTqPwagNcu9/6ywn/1p3QJXLzWfwlLnbYSTyeRn3ElYc/er5j7rbR1SaOCj/PPpolpi/FSB8Pqq20JN83ayNS9bqLAhuM3v6PLDfT+vdvfgFW3AsxHn8/nFpmc6nf5Z+/1ZaVzvGDwcDte7CjebzWKxeHE2qPLz9u9b5KNPBMKPuN6P/BtiYeYoeG2hymulsexb1L8bbcD19ftlb9AxKuwHfFrfwMe+lzgW+2z2ay68Y1lyn1lVPm8sED5riAqfZwuEse/FqXlJzovd/VuWG2RgNpuN9xDq5XIZ7w7G8Xh8eGJwOp2u1+suZ6SPx+N6vX44kWpv5P5+LSQQfm/4YAo/NRbmj4LXxqh5LiXzs2Tuu2add3/fto7j3eFOGAgvl8vpdKq2d3JrxOtAtdPg1R7kcH0QVPhTke8X0o6f1N/9Egg7Nk2J0RIGwti31VfbuNTcnag2UyW6aP1LkAY54vzwZSq993Uf3n9Y+Trn3o0rEPame//D672FD48ZtHa28v+5WCxGdJtszcuoxvXolJp725PJpOZx3PcL5Cdj5AyEl8ul2mNX7ldK1a7UenHpzn2tvvykZsj5pAO+H7em0hW5ptWXzfr256Pb884ZCC+XS82tbatZ61xjWXmV2+V81Pu1Q/UxKmwxW60/yHUrD9Pg9yuH+yPvo8iEAmGN5Wa/39ffeN8vPP0+Wa1Wo1tD9ZvTfr8a3RmGmsc7x3ubVoXNW+9Vz/3Gpl/X7fGrOg+YqXnV6GQyqXmHZO9Gb/2w8sWi164iELZaoeafaQNh7GULdXZOah7WH+OFo1EPGfryDOF9Ghwwtt1fhjrgxAuteQTCQrAPJns6nbbbbeDhtI/2/+bz+W63G+MV7RV25W+SNfeQHnSpXh9VPt7Zq47xP6rQi76ZycADTBXiU/2LIevsVn7T4s3f1n9isEDY9A8ZThsIL5dLhbXlbZvbGqhz2ULliyFHd2VN1Pbom0B4f0/+4H2pQhHDrosEwmE9O00tczKcz+fb7XZ0Z72a7jVPL4zoMtomUc370L5ZZTfrXHm4wi7ON3MUdUT2ujdWoU1rnsce182EgU1f8/hXa79/8D+/vyrsm+W3x28zB8I/sxN42UKFbln5ueWTyWRE/TOw6b/ZErVC/uBp8LqM32fCzDcZCYQ91syD/eR8Pu92u9VqVfOChIdb1sViMfYceGuVmqunkSbnmnvb36yyb21afyB5ILw+9r1msG+uNyo8YKb+SbBCOwTDdt373Ytmu5QerrDnfeMqPS8j2uG+miQPhJfLJeo00WQyqbCTXdr/vsOP4nBzzePv90S99y5a2/cXW7T7Qmez2WKxWK1WHfeZ7y946V3t2+qx0IBAWAj248meTqf9fr9er6utd/5s3TebTdqu+bHg//+gGuB4X7xe86rR0e14XftRa4Nxv1X4/pP/77D9/w/cGFeIT9UW5FtTVpip/o3971PdY+84EAi/ab4vf1t6cfh+RR17tKJ0fKq50bytkUrP1Jd9MnADdCXqvfvaWppeTOfWFs8GVqvV2xMDrd2JmivSj5pYIPyIq97IrdPZz/pi78/T9sjviVuLem+itz+scFTye42HU6h5Acz3+xkPZ6H0h601+NvO0GOEQWah5sne1jyWvtElZG8jbSaM3du+Nn3NrUarsw3+5+jWS6W3a4OA3D+lY/CGezbBCk/sCLmSK20mDFk/t1r/RZB7sXltbdxf78i1Snz4Z5e+19ql71fzFzM1yFcC4SCMw0+k9HWPNTftw+u8nGK16+jSrqlf8vzvy2pKpWNDl5ntMU5rm/FwM/Dlhz1q9fAngWeNBtmJfDhT1w9D9sASZsIMaXAymdTcany5cL39eemu+6JX9/tqFIEw9m31pZ/PGRWBEu5pRFG0lut+sap5bRBYA+AAACAASURBVPPb90g3S1z8/7/7be7b6bQuHK25Lu2+whEIu1tVHVMg7M3dXICLDvdbGfWer2F/WHr34iafc8X3FnNEgbC1pbnJ1xko+iqwqN2O2WyW57mj948vr9Oy96XUXJbvSx/2E4Gw5TkgSOtkSKugon+W7qLVDqS2lAZsnbfbvrcjBF6W0mLpsQ/WujzqLWyzxKbM9TXjzW/fTqq1V//2QtNmcXWGBcI6zh+X0uo6zW43yHDp9ebHMzzcDwbx6TKR4aocMKVq2+yR9rQRBcLYx753uVrmm/4dcpLw+tzRDAfmt9tt1D7o/Tqw5rJ8X/qwn7zde/um05b4belDeMOC3J9CGbb5Xkzt9RWAXzZN6R2zF/O1XC7DXwN2Op0CW/Yep0cgbL3B9S1ps9D7ztPsD2/funw+n5tTq/ACp/sKv/5EIHztE/Zts581+9BQwzU37TURW4vcUFwPp1NzvgYvq3QHu4mNtKeNKxBeLpfWdu7mX2Gg6DWWUScJr26r1ertHsPgy+Z1gufzuXlpU4V2fFtEzWX5bWW+HGHY/FOoDzQnO65AGHvZQtFDOVGHqCaTyWw26xGBmr3om+FUB6eui38PjeZy1OV+luZ65l6vtcN5P0Lrk+YqvebqtFWNZ38KhM9kgj8vvb+esC8OIl5hP/66gphOp4NUOGoipTvYbTU60p5WoSMN3vTNjc3Nv85Aly1r7/kN3AO7nioselnsQ5aE+17uIXzYUtU+bO7IllioB0/I9d8cc2MpetlC7CGqyWRS/yjV8Xgs3f1ubffRQI9A2Jx+lwMHzfEfLuxvR2j+qtV5ml9lGBYIM7TCgzqU3l8f6W76A6m/P6qwH39d/scOWO0h2m+vo/i7AbP8VaEjDT6rsY8eGXyH8uZToS2aG/WHw4vFosfOx20Wug/sdrvYAPxw9uuv9F5UY5CvynXX7m390Zil98hLgARetlD0ATPhl03+OR692WwqXLxwOp3y3DF4v+B/uk5uHaTochdfs9CHC+zbEZq/at3B+Gn9m5MqMSwQllAdYJoCYT/EavuOYw+E1aAmk1GuZCr49Ovhr38V+Nj3yWRS7kxa6b3h5kb9xfBisSg0j+fzebvdpo2CV5OaK70XrTDIVyXyz+tl88tvSy8ChUAC40S57lph69Clk19jYZdU06Pv7ff7wEtOusz+ZDL5NFA1j4N3vMirWZN7xmZP6DjB5j3hhbYm9/Xs+Mko99U6ztuoRxMI+zVfc/lsLsmDD4/3rfRX2GrHbkcKVaEj9evhb3/V3OYN3u1fT7DclVqtA6uvq1H629lstl6vB3kM6fl83u12+Xe8rqTl9rDve3XpRiyUf+5nZKhPRhoIYy9bKPeAmVTL7HK53O12g5wwPB6P6/U6+ZGp28rh00DY3K/uuDa7lXV/aLv1iJ3VatVlYW8uyNnWQgJhlxYMGKfZcZs9cqjhjgtDwJx/V2SF/fhbE3xX0+Bfl+5gN6WR9rQKHalcD6j2CNlbK98Gyj1gplqPvc3L24HZbLZarXa73Ufh8Hg87vf79XodfuHZ2xlsjVBzWW4VPfif2XbF3q4NmvuRg2v82dktB3I6nZpnRUpU/sU0u9wn9hb/foTYp+Y8m98/S+hmszkcDt3D4fl8PhwO2+12uVwGNtOzOXr9eeVAePj/f9cVeIur46na5qGEcgvdfY/t8olA2EUpYJzSez81N+2V+V6vQQb8tvJ8DVtc6Q52cx5pTxt1ILxcLqV3H2/tez9Q7gEzyRPUfD5fLBZ/Zv/PZr71b7lcLhaL5PW/b8rWJzWX5VbRg//5p4GGXaOWnlrpJbooyI+8bKH1gJDBu+iXE5xOp9f3qLfWRZvNZr1eX79qRZovS6z/828CYccO33Gmur9Dornr1bEOpdctt+kLhDeKXAPNTtOxR340Ws1Ne2XZjxy+GbnjAaHKs9+xuOZhqm8Q3v52pD1t7IHwfD4HXvZTaDvXeiTA275nhGEFai7Lw9b8fmqFumjH1W+P0UYdCP/Mb+ldmvsmvn0ynU67nzH7qGmqbUZv82KgKZAkEH50Frq5IGRbCwmEHy3+9UZudprmAjDUcM1Nez21f0saiujtdD5dGVV2eF1c6d2Lm95Ie9rYA+HlcomNT4Vuly+9Yrz1WwP3AjWX5fvSh/0k267Y69V1hXP+FUCqbXTuu0qhW9lzXjh6P/s/9ZNP98Gam4+Ot/y9oLveTP7piYFmHSosdG9XLM0RBMKmRqLhZqd50SN7f1Vz016ZtdpVENkW5o+ce/ecT39Y7rb+j+b305F/QCC8XC6BFzWVe8BM4G7lp53/h41fc6tRmm50a+/S3b4CSOxlCx0DwKdbisCrYUsvI/mn/00g7Lg2ayI09y173y3fXJArLHQf9WeB8COueiMLhL2tm8tbc2EefLjcvVK9573jDyuknZt2tlVeHqKONflytMDHvhd6FZij8reFq/JAx12oL3vs9eelZ21066XS27U6ILHvxfno0r7u3TjwIV6lF5Pk0/80EDYfrt7xpHFToHWAtd8hhuaCXGeh696TBcLuVlXHFAh7czeXt+bCPPhwx9fO9J6Rcj9srhYHZ2lNsPvN1uXmt8eUK2TmHrXq8ZPYx74XihAVWqfVjf05mUwKtebDXl0aPNuu2EOE5oelt2vVQFp71aUbujX9jx4I3PR/PVy6dVpz4c+rwKeBsLXheN2m12+b1JfLpRX+e+zeNCf4af27VPibcQTCb/QK/lYg7I1bmq65PBfauvSe944/rLn1yrbK60jU2nI0G32o4Y41+X602Me+F7pmOHa3cqg+MK7pCITfL4y9p1B6pV0tEF4ul8DLFgo9YCb2athxrUYGrO2nexfn87lZepefN8e/Lryth0V3mchtqW/d2P/p/Ye36RQaEAgLwX472dKppuam/VuLD39f8/RXoZ3dD+f4s9Fb68Tm+q7EcLZVXkesnxQIL5dLhdl50XkKXakVuFv5YmZ/8Fc1txqlGWvmn47rnNej/aRAeLlcWnvVpZu7Of2O1wq+bo77b2Ovhm3O4O8Z/iiMXZus+fDtLvtvTczrFFoHWKfTafednOaO/Ww2u+9FsZ8IhLH+T0tv9ptmjxxquOam/elMlvmi5r5vwkX6LWrNwPznfcdv65NzhAq9qPKMl16lvFg1lXvAjMe+v2Af/KuaW43BK9+aoEAYCxJ7J3C/u7/errE9YKbVqUr/2SMQNg8jdtl/a87CrQO0dg+6H2JoxtFCnfBWyR4DY91d6zGr4/pJ6b23mpv2yvKVz4AVerx+ObTmKqm5sisxPN5u1lrjl8Ap18TPphwYn8o9YCbwVEOJXpF5mjUX59IOAmFLuD5IhXVsax6bfxa6bMGl7E3k0sM9AmErtL+dQnMWmhvW1i56l3TX6vAJdx0FwmYTJxpu9bZmpxxkuOamvT6rzPPMvLVKGqQvvZhIl0synlU19vMKUPVn8Ec+YCZ2pl50/p/3Vc2tRmm9+vnny+X9h10yetWofLlKq1MVegSATNhyLvfn2zj3cKFrvj3i7TqtWfnW1FoHWN8eYmguwjkfSSgQtpo4y58C4Tct0VpQm4t0ieF+a6VvZrD3b5urpBIUrWm+XUX2npHSP/yRgfD6tvrm5rDVXqX/LHSAQCacTCbzf/8VbcG3O08DLpVFZ+TPpewCYUs4CqTyxro514UeMBP7AtjmDMYONy/OLFSTfrterb3r1xNp1ry1frt/ktCLQwytPYpCm8JWDT/9UyD8VKzS+K0u2+yUgwzX3LRXImsUU1qv1QRjwWytklpzUeLPF+vHRnNlHKxgFTXbsQewCx0j+OWZcLlcns/n0od7aq7oSqyOmtOMyj+9l/rSjRsFErvkdr/769OGi13NNrt6/eHpdHr491/pol9nuWdN1rp/9fXtDM1ZuJ9g66mhLw4xtG5t6P4cmvtCy30iEJaz/WrKpSNNzU37VxC9flxhb765mphMJgkvB7+Xq3kl7WQyyXlRxD3Lw08qdKGH5db5sPUypVZnLvpnuQfMnM/nwLMNRdFeT/x2+0rpzFBzq/F6lr//Nir/9F7ASzduIEjs8zlvi0/vpnn2w91uF3g5xvfLSL8p3NbwFbah/QLhn/Zq7WC/6ANNhIcN3Ur+Dw8xtDa4gcvaw1m4fSgQ3ihyDbT6a7NTDjJcc9MeIjuIUveJvDgyFDL794WW7lH3Vsvl8r4aY/mkwsYslqJ1wPK++cp98vqI7JcsFa5TKifTY8rNNyOXzgw1txo9KD76Sdp9smf9v3TjxoK0HvXxUVN+P3KhyxbCL9H/XubTKczn8/P5fO3DFbahvQPh/dWez/rAn+Xi9u/ZsvlnJXwbZ7PZtM7+tRJj5n1FgfBZEwd/Xnr3veamPYSy/rmCFweZQgSahbYubPh0Ld9v/Gdr2GbF0g5X2JjFznvrspl+Tdz7V0XXP7FPquht8ukPr9dlNXtR6cxQtNWaM3K5XD7V+HT8PztwrRKT/1m6ccNBWmdRPm3QL8fvHS3edpvj8Rh49O1Llo9+3toFqrAN/abV7qtXYo+llQaTX00mEL5dnGNGEAi/dA/ZKSyxQvnS4XK5RN2k0TpO9v2M1JzC/dbio01jl5Frzs7DskIOE9xkit5VfzgcfvbFWvP5/H75Kp0ZBMKHy1GdD0s3bnggvFwupefxtvK5H/jo9eKftviPv5p9Op3e7/xU2IZ+Ewgvl8v9MYj7ufi0rZvj36fBolu9ZtH9hgXCfm7FfyUQfkl8Op3uV/qlP7ldPf9l5Yf9echFdA+vpB92vopOrcLGrGj9O0485LjJbTEcduvbmuUKD1m5zUjlgWd7FaX3pwXCVh+r+Wfpxs0QCGMvW2he7liiZWNXtuXWUfP5/OHT4ypsQ78MhJfL5X7vaLVa3a567d0Nzufz/ZTz30QjEPZu8bI/FAi/9w25TqPogcYeJvdrpXIbhuaUm7c29ah2+E8qbMzC5/Fagagecu0tD/ckBpQpvSJt9vkKw7PZ7MU+UOnMIBAO2DM/nVTpxs0QCK833VVYjp4V0bro8dM2ejv+z7t8dL1eP4tPFbahL1aGb9viOsLD66dms9k3Byt3u939A/xKH27oOL+vRxMIX/uEfVt6P6bmpj0KMeqAXJ4l//6KhWcbwsE/v7+eLaob9Cu3wsasX8UG/9XDLeLg/eHZBCvcYf9jdsJe7Htde0XpzFBzq/Gswwz1eZL8031xLt24eUACN1uTyaTCoczSe3dDLSOvp/P64NTlcqmwDf0+EF4XwIdHRa+x8FncfbjkPoyCk8lkkLOOD0sc9kOBcFjPwaZWepVRc9M+GMqHEwq5avS6Dn14h8+H1f929NJd6MXWYuzXi9bZmH3bwMP9Pvax73V6y3a7He9dhW/3va59oXRmqLnVeLF6GeSrPPmn43JcunFTgTzcQR+k3btMZKiY8aJlj8dj6QbtMqe9x9lsNm+T0ogC4Z+Wera/NJ1Ol8vlbrd7djHL8Xjc7Xar1erZ9iXVkvWiT/7zKK/XX/s2SuBZ7+y9ALd+WHPTHmV4uVzqP2v05hx7P2HsBvWbyy0Ce0uz6Aobs2Zx4cOxj30vfaXWlffhfR23BTbnwJ+XeXbfnyi9i1lzq1G6Obqrhi+b1wqUbtxUIOGXLdS5wuXZCaXSnf+b6S8Wi444Fbahw0b3LteSTKfTxf//e5YAb7wdD+QlWcMIhHka4r+aHA6H9Xp9fwnyrZMNMjCbzUbxLvX/XHoNxe7mPnz0Vq/5+OBH4c/SqHAR4AccfUetsDHrW7VSvyt9EOr1iqvaQYTT6RR7uOS1Q/Pbt9eItrpC6cwgELbAa/5ZunFTBcLL5XI6nd7ucDcXlmGHa973sdlsAue0u9tisfgogFXYhn5Un45L6yDXknx0IK9jxSqM5gxhBeT3RZzP591uF3I663o2/O3Z//fzkHWM0tH67fq05uXj+/0+fNNS52xP6e5WYWNWehZ6TL/0TufrheXZNTk9ZuTtT5LHwtVq1fEwfHNOSzefQNjUrjxcunGzBcI61+2/WCPV3JCdz+ftdhu+r/JMYz6f9zhgV2EbWiIQXt/Utdvt+j2V8Go10j1qgbDyWr1dXFQOvF/yf2oyjD3vcXWucD72dDqFHFC470g9dmTbS0WCvytszBLMZbsK5/M5cKek/rnlP3011eH563Hl3jsTpTODQNheYCr+XbpxEwbCP7qxm+8KD5hp9aDdble6oe832S8++fSsYHN2KmxDCwXC21ycTqftdrtcLl8fZ7/eZ7jdbse+8yMQ3pq+6sDpdFqv16872YultNxX0+m038HpqnyfFBb7aqNmS32zbn0xx392H/Ps1NbcZXxh8v1X5/P5UPjf95UsMYXT6VR4vl9NPmqDut/vY4+nLBaLHsfgWx3geDy+wv36u5qncL+u7JsJRPW0VpN1/7N046YFedOQhb/u3kADjnndP4w9Nrder7/sEhW2ob2PnfVorGezU7MOPar90U8Ewo+4Bhj5cDiM4g6WQullAMHPJxF7lLGZCSeTyWKxGOruzYSHFUofsfu88f2CQFeB66X7L54X11qWv/9zPp//gOPKXX2NR4DAJwLH43G9Xve7drHH2ul6PmCo/ZNPZtS4KQQEwnrNcDgcUl0M0GV98TNiYZ6ThDfz2Wy2Xq/7HXEPvOP0Vv+HAz/m9GC9lYKSsgocj8cuFws9XBBefzibzVar1W63+/IAfFY59SJAYGCB0+m02+0KhcM/G+7NZuNg7sBtNsLJCYQ1Gm3s75z5AbEw1UnC5v7i9erz6+r4xQ7i4XAotz1o1uebYVuUGmsTZVQXuF5Gu9lsVqvVYrH49FKu+Xy+XC43m81+v3+xjFefLQUSIDBKgev+wGazub4B4aOt9mw2WywW6/V6u93aZI+y+YtVWiAsRvvvhMf45qtnK5flcjnevZmEJwmfOU8mk/l8fl3RJ7zL9Fm1nR4suyox9XwCr2/r6nf+P99cqhEBAiMQeHaT2+0uy590t9sI2mOEVRQICzbaIO8zebb/HfL5SF+ucm3jtCcJQ5py8ELHe7Cg4CrApAkQIECAAAEC6QUEwiJNNPZrRF+nhfl8PtKD359e6/Xawbc3gfV6XWRBMlECBAgQIECAAIHCAgLh8MA/78Tgbb+/OVD/FT3fN1WFF+M0iX7JcP3Xx33fE0yBAAECBAgQIEDgKiAQDtkTzufz6J4j+k1oWSwWo7sqPfZtY99op/2tp1QPuRIxLQIECBAgQIBAXQGBcDDvw+EwokeADJUuptPpuC4fHdfTZYZqpnLT+fP4xMEWIRMiQIAAAQIECBCoLiAQDkO+3W7L7XPnn/JutxvGscpU9vt9ftJR1NDFolU6rEIIECBAgAABAgUFBMIBcFer1Sh234tWclyPFVmv10U1fsnEXSw6wOrDJAgQIECAAAECoQIC4Vf85/N5Pp//kr3/t7O5Wq2+0qz4Yw33tjXfjjCuQwAVO5eiCBAgQIAAAQJjEhAI+7eWUHGfGUb0mJnj8fgL7/m8b7J+n8zn8/5Ljl8SIECAAAECBAikERAIezbF8Xh0bvBhlpjP52N59KibCR+24NsP3TrYc63hZwQIECBAgACBfAICYZ82cXLpdWYYUSbcbDav58W3LYHRPVe2zxLuNwQIECBAgACBXyMgEH7c1KfTyaWGrZBw/+eI3kbgmUD3zffik3E9UfbjxdsPCBAgQIAAAQK/TEAg/KzB3Tf4Iiq0vhrRM2YWi0Wr8v58KCANfra+MDYBAgQIECBAIL2AQPhBE0mDD0PCiw83m80HvnGjatkXjXj7aiytGdePlEyAAAECBAgQGJ+AQPhBmzmPdMsG3QfGck5JJnzdpiM63/vBIm1UAgQIECBAgMCvFxAIu3YBd5q9DgzPvh3RM0hkwmeNKA12XU0YjwABAgQIECAwNgGBsFOL7Xa7Z/vKPn8rMJvNxvIiCpnwvjXHco6305JsJAIECBAgQIAAgb8FBMK/PR79dTwe7/eSffKRwIgeOnq5XJwNvjWuNPholeAzAgQIECBAgMDPERAI37Tl+XyezWa3/WMDvQXGFS3W63XvOf0ZP5xOp4fD4c3i4WsCBAgQIECAAIGRCwiEbxrQyaKh4s10Oj2dTm+4M3292+1+7Qsn5/P58XjM1BrqQoAAAQIECBAgUERAIHzFut/vh4pDpjOZTBaLxSvufN8dj8dfeH54uVyO5Z7PfF1GjQgQIECAAAECIxMQCJ822Pl8/rUniMrF13FdOHq5XM7n83K5LAeSbcrb7fbpIuELAgQIECBAgACBHycgED5t0l8VA6rFkul0OsazT7/h8lGXiT5dF/iCAAECBAgQIPBzBQTCx217OByqZaTfVtB6vX6MnvvT0+m0WCx+amNtNpvc/GpHgAABAgQIECBQREAgfMz6C+8cqxl1xvV0mWYX2e/3P+xC4sVi4fkxzSY2TIAAAQIECBD4VQIC4YPm3m63NdNRj7Jms9ni0b+x5NjVavXAfSQf/bnkdbPZ9Gi1bD+ZzWaju6VzJH1ENQkQIECAAAECoxEQCNtNlfNZMtPpdLlcbrfbLq+GOxwO2+12uVxmPpc13pOE1x5zOp3G+0qS6XS62WzGeDNne3H1NwECBAgQIECAwHcCAmHbL9XJn+l0ulqt9vt9u5ad/97v96vVKmEyHPVJwhv/6GKhKHhrOwMECBAgQIAAAQKXy0Ug/Ksb5Dk9OJvNttvtUOdwzufzdrvNdkHp2E8S3rrONRYmTN3Ni1SH7VG3eTdAgAABAgQIECAwagGB8K/my3B6cDqdlnsX3Ha7zZNbfsZJwlsHypm6J5PJcrn85iTzbQYNECBAgAABAgQI/DwBgfC/Ns1wenC9Xg91VvC/Gft76Hw+r9fr5rmjwOHSM/v3rFf663g8ZrhMdz6fb7fbH3MatlLjKYYAAQIECBAg8MsEBML/Gjz24aLT6bTLA2P+q+53Q4fDIcOpwnLnQr/jGebXh8NhvV5XvlJ3sVjIgcO0n6kQIECAAAECBH6BgED4XyNX3nFvnpdbLBb1z5Wdz+fwN63PZrP/GuDnDp1Op91ut1qtCvWxxWKxXq/3+339XvRzG82cESBAgAABAgR+hYBA+L9mPhwOzYRWczj2VrrwdyfUPC+aYZk+n8/X94Ks1+vFYtEjIl7fQLnZbHa7nXfKZ2hTdSBAgAABAgQIjFdAIPxf20Xlotg0eJ35qHm/pu4MAhkW4MO7f+4GzNBM6kCAAAECBAgQ+GECAuE/DXo+n2ueEryVlScLBWbCP2/G+2ELldkhQIAAAQIECBAgMBYBgfCfltrtdreQVm0gTxq8dtbATOilCGNZX6gnAQIECBAgQIDADxMQCP9p0OVyWS0HXgtaLBYJe1LUM2ayZeOETaNKBAgQIECAAAECBEoICIQB14tOp9OcT4M8n889nnHyfZb+Jc8aLbEAmyYBAgQIECBAgACBbwQEwst+v/8+0nw0hczP1Yx62qqnZX6zGPstAQIECBAgQIAAgX4CAuGl8r1z6/W6X1NV+9V6vf4o3w4y8s9+Q321tlMQAQIECBAgQIAAgY8EBMJLzYsk014s2uw05/N5Op0OEvO6T2S5XDbrYJgAAQIECBAgQIAAgQoCvz0Qnk6n7qHl+zF3u12FRv2+iPqPXXUb4fetZgoECBAgQIAAAQIEPhX47YGw5g2E48o8NU+cXpO2F69/uvQanwABAgQIECBAgMCXAr89ENa8X24spwevXar+SUJvI/xyYfZzAgQIECBAgAABAp8K/PZAWO3Ne6O4e7DZe+rfSbjZbJoVMEyAAAECBAgQIECAQGmB3x4Iqz09ZYzvXq/8/FXPlSm9tJs+AQIECBAgQIAAgZbArw6E5/P5++fEdJxC5ncPtvrE7c/j8dhx7gYZbbFY3Io2QIAAAQIECBAgQIBABYFfHQirvYR9Op1WaMsSRVQ7g3qNlCVmwTQJECBAgAABAgQIEHgm8KsDYbXnpozxetFrj6l81eizbupzAgQIECBAgAABAgRKCPzqQLjZbAa51vHtRLbbbYnGqzDNapn5ajjGC2srtIIiCBAgQIAAAQIECBQS+NWBsNo7J47HY6H2Kz3ZyrcRCoSlG9T0CRAgQIAAAQIECDQFfnUgrPbOiab46Ibfnv8ccASBcHTdQ4UJECBAgAABAgRGLSAQDhhnHk9qNpuNuovMZrPHM1bgU68iHHVXUXkCBAgQIECAAIHRCQiEBWLN35Mc+9sUqp1HnUwmAuHo1iAqTIAAAQIECBAgMGoBgfDv9FbgL4GwO6pAOOq1icoTIECAAAECBAiMTkAg7J5Weo65Xq9H1y2aFa726B1nCJvshgkQIECAAAECBAhUEBAIe8a87j8b+1mvai/nEAgrLPCKIECAAAECBAgQINAUEAi7J7ueYzpD2B1u7OG5uWgZJkCAAAECBAgQIJBfQCDsnlZ6jukewu5wAmH+VYYaEiBAgAABAgQI/CQBgbB7Wuk5pkDYHU4g/EkrF/NCgAABAgQIECCQX0Ag7J5Weo45n8/z94MXNZzP5z3n/POfCYQvGsJXBAgQIECAAAECBAYXEAg/Ty2f/2LwZqs5wc9nt/8vDodDzVlTFgECBAgQIECAAIFfLvCrA+FqteqfXT755fF4HGk/Ox6Pn8zot+MKhCPtJ6pNgAABAgQIECAwUoFfHQirvVBht9uNtH/sdrtvQ94nvx9vch5p+6o2AQIECBAgQIDALxf41YFwu91+klb6j7tarUbaz6qdRL3ijlRJtQkQIECAAAECBAiMVOBXB8LD4dA/5H3yy+l0OtL+MZvNPpnRr8Ydr9JIG1e1CRAgQIAAAQIECPzqQFjzBrkxXgxZ02cymYz9/RzWJgQIECBAgAABAgRGJ/CrA+HlcvnqlNYnPx7jVaPr9fqTWfx23DESjW6BV2ECBAgQIECAAAECTYHfHgirvWRvOp2ez+cmff7hMxnkUAAAIABJREFU6XT6bcj75PdeQpi/S6ghAQIECBAgQIDADxP47YGw5kNTxvWs0crPF51MJt458cNWLmaHAAECBAgQIEAgv8BvD4TVHjQ6mUxms1n+DnGrYc3HyVzPI47uDOrNygABAgQIECBAgACBkQr89kBY7UGj18wzlpOE9U8PzufzkS5Cqk2AAAECBAgQIEBgvAK/PRDWfK7M9SRh/vNg5/O5/unB9Xo93qVIzQkQIECAAAECBAiMVEAgvCwWi08effLtuPmTT+WHi15B9/v9SBch1SZAgAABAgQIECAwXgGB8LLZbL4NeR/+PvPTUyq/e/Aml//E6XgXcjUnQIAAAQIECBAg8ExAILzUj0Cz2Sxn/gm5WHQymbiB8Nny6XMCBAgQIECAAAECRQUEwn94698yt1wui7Zrv4kvl8vbKbuaA9vttl+F/YoAAQIECBAgQIAAgW8EBMJ/9Gq+jfAWtFar1TctN/hvQ24dvGqcTqfBZ8cECRAgQIAAAQIECBB4KyAQ/kO03+9vOa3mQJ63UNR/z8TN2fWib5dSIxAgQIAAAQIECBAoJCAQ/g+2/lWj10SUIRMGpsHJZOJ60ULLtskSIECAAAECBAgQeCsgEP6PKPCCydhrRwNn/BqJcz5f5+2SYwQCBAgQIECAAAECP0BAIPxfI55Op9tFjPUHlstl/Vx0Pp+jniJzE44Nwz9gATYLBAgQIECAAAECBL4REAj/06v8hvpbKLoOzGaz4/H4X20KDx2Px6irZJsznvmVjIVbwOQJECBAgAABAgQIxAsIhP+1QeytdNeYtNlsSp8q/DP9zWbTTGVRw7PZ7D99QwQIECBAgAABAgQIVBcQCP8iz3DSbDablXvSzG63yzCP1whabjb/alR/ECBAgAABAgQIECDwREAg/Asmw0nCa1gaPBamioKTycTpwb96nj8IECBAgAABAgQIRAgIhG316XQadQnlfbnT6XS9Xn9zb+HxeFyv16lmyunBdp/zNwECBAgQIECAAIEgAYGwDZ/nJGEzH85ms9VqtdvtuoTD4/G42+1Wq1Weq0Ob8+L0YLvP+ZsAAQIECBAgQIBAkIBA+AA+bY66xar5fL5YLJbL5eb//y2Xy8ViMZ/Pb+NkHnD34INu5yMCBAgQIECAAAEC1QUEwgfkOU8SZg54H9VtsVg8QPcRAQIECBAgQIAAAQLVBQTCx+Sx7yT8KF+NbuQuV70+bhWfEiBAgAABAgQIECAwqIBA+JjzeDyOLmiNosLr9fqxuE8JECBAgAABAgQIEKguIBA+JV+v16OIWCOq5HQ6PZ/PT8V9QYAAAQIECBAgQIBAXQGB8Kn3+XzO/3SZEaXByWSy3++fcvuCAAECBAgQIECAAIHqAgLhK/LD4TCuxJW5tqvV6pW17wgQIECAAAECBAgQqC4gEL4hd+HoICFzNpu5WPRNV/M1AQIECBAgQIAAgeoCAuEb8vP5PJaX+w2S3ApNxJNF3/QzXxMgQIAAAQIECBCIEBAI36sfj8fpdFooKf2GyXoN/ftOZgwCBAgQIECAAAECEQICYSf1/X7/G5JbiXl062CnHmYkAgQIECBAgAABAhECAmFX9c1mUyIv/expzufzrr7GI0CAAAECBAgQIECguoBA+AH5arX62flt2Lmbz+ceJPNB9zIqAQIECBAgQIAAgeoCAuEH5B4w0z0xTqfT0+n0Aa5RCRAgQIAAAQIECBCoLiAQfkYuE3bJhNPp1GNFP+tYxiZAgAABAgQIECAQISAQfqwuE77OhNLgx13KDwgQIECAAAECBAgECQiEfeBlwmeZUBrs05/8hgABAgQIECBAgECQgEDYE14mvM+E0mDPzuRnBAgQIECAAAECBIIEBML+8DJhMxPO53NPkenfmfySAAECBAgQIECAQISAQPitundRTCaTxWLhDRPf9iS/J0CAAAECBAgQIFBdQCAcgPyXv7N+tVoNgGgSBAgQIECAAAECBAhUFxAIhyHf7/fT6bR5CeVvGJ5Op7vdbhhBUyFAgAABAgQIECBAoLqAQDgY+el0ms/nvyEHXudxPp972eBgvceECBAgQIAAAQIECEQICIQDq6/X69+QCdfrtZsGB+46JkeAAAECBAgQIECguoBAODz54XCYzWY/NRbOZrPD4TC8mikSIECAAAECBAgQIFBdQCAsQn4+n3/kqcLNZuPEYJEeY6IECBAgQIAAAQIEIgQEwoLqx+NxsVj8jFOFi8XCawYL9hWTJkCAAAECBAgQIBAhIBAWV9/v96O+gtQ1osW7iAIIECBAgAABAgQIBAkIhJXgd7vd6GLhbDbzVolK/UMxBAgQIECAAAECBCIEBMKq6mOJhYvFQhSs2jMURoAAAQIECBAgQCBCQCAMUD8cDsvlMue9havVytsFA/qEIgkQIECAAAECBAhECAiEEer/lnk6nbbbbZJ32c/n891u5wmiYb1BwQQIECBAgAABAgQiBATCCPW/y/xzRm6z2YQkw8Visd1uPT707wbxFwECBAgQIECAAIHfIiAQJmrp0+m02+1Wq1XRx8/M5/P1er3f750PTNT2qkKAAAECBAgQIEAgQkAgjFDvUObpdNrv95vNZrlcfnnycLFYrFarzWZzOByEwA72RiFAgAABAgQIECDwWwQEwtG09Ol0Ovz7b/Pu33a7vY4p/o2mdVWUAAECBAgQIECAQISAQBihrkwCBAgQIECAAAECBAgkEBAIEzSCKhAgQIAAAQIECBAgQCBCQCCMUFcmAQIECBAgQIAAAQIEEggIhAkaQRUIECBAgAABAgQIECAQISAQRqgrkwABAgQIECBAgAABAgkEBMIEjaAKBAgQIECAAAECBAgQiBAQCCPUlUmAAAECBAgQIECAAIEEAgJhgkZQBQIECBAgQIAAAQIECEQICIQR6sokQIAAAQIECBAgQIBAAgGBMEEjqAIBAgQIECBAgAABAgQiBATCCHVlEiBAgAABAgQIECBAIIGAQJigEVSBAAECBAgQIECAAAECEQICYYS6MgkQIECAAAECBAgQIJBAQCBM0AiqQIAAAQIECBAgQIAAgQgBgTBCXZkECBAgQIAAAQIECBBIICAQJmgEVSBAgAABAgQIECBAgECEgEAYoa5MAgQIECBAgAABAgQIJBAQCBM0gioQIECAAAECBAgQIEAgQkAgjFBXJgECBAgQIECAAAECBBIICIQJGkEVCBAgQIAAAQIECBAgECEgEEaoK5MAAQIECBAgQIAAAQIJBATCBI2gCgQIECBAgAABAgQIEIgQEAgj1JVJgAABAgQIECBAgACBBAICYYJGUAUCBAgQIECAAAECBAhECAiEEerKJECAAAECBAgQIECAQAIBgTBBI6gCAQIECBAgQIAAAQIEIgQEwgh1ZRIgQIAAAQIECBAgQCCBgECYoBFUgQABAgQIECBAgAABAhECAmGEujIJECBAgAABAgQIECCQQEAgTNAIqkCAAAECBAgQIECAAIEIAYEwQl2ZBAgQIECAAAECBAgQSCAgECZoBFUgQIAAAQIECBAgQIBAhIBAGKGuTAIECBAgQIAAAQIECCQQEAgTNIIqECBAgAABAgQIECBAIEJAIIxQVyYBAgQIECBAgAABAgQSCAiECRpBFQgQIECAAAECBAgQIBAhIBBGqCuTAAECBAgQIECAAAECCQQEwgSNoAoECBAgQIAAAQIECBCIEBAII9SVSYAAAQIECBAgQIAAgQQCAmGCRlAFAgQIECBAgAABAgQIRAgIhBHqyiRAgAABAgQIECBAgEACAYEwQSOoAgECBAgQIECAAAECBCIEBMIIdWUSIECAAAECBAgQIEAggYBAmKARVIEAAQIECBAgQIAAAQIRAgJhhLoyCRAgQIAAAQIECBAgkEBAIEzQCKpAgAABAgQIECBAgACBCAGBMEJdmQQIECBAgAABAgQIEEggIBAmaARVIECAAAECBAgQIECAQISAQBihrkwCBAgQIECAAAECBAgkEBAIEzSCKhAgQIAAAQIECBAgQCBCQCCMUFcmAQIECBAgQIAAAQIEEggIhAkaQRUIECBAgAABAgQIECAQISAQRqgrkwABAgQIECBAgAABAgkEBMIEjaAKBAgQIECAAAECBAgQiBAQCCPUlUmAAAECBAgQIECAAIEEAgJhgkZQBQIECBAgQIAAAQIECEQICIQR6sokQIAAAQIECBAgQIBAAgGBMEEjqAIBAgQIECBAgAABAgQiBATCCHVlEiBAgAABAgQIECBAIIGAQJigEVSBAAECBAgQIECAAAECEQICYYS6MgkQIECAAAECBAgQIJBAQCBM0AiqQIAAAQIECBAgQIAAgQgBgTBCXZkECBAgQIAAAQIECBBIICAQJmgEVSBAgAABAgQIECBAgECEgEAYoa5MAgQIECBAgAABAgQIJBAQCBM0gioQIECAAAECBAgQIEAgQkAgjFBXJgECBAgQIECAAAECBBIICIQJGkEVCBAgQIAAAQIECBAgECEgEEaoK5MAAQIECBAgQIAAAQIJBATCBI2gCgQIECBAgAABAgQIEIgQEAgj1JVJgAABAgQIECBAgACBBAICYYJGUAUCBAgQIECAAAECBAhECAiEEerKJECAAAECBAgQIECAQAIBgTBBI6gCAQIECBAgQIAAAQIEIgQEwgh1ZRIgQIAAAQIECBAgQCCBgECYoBFUgQABAgQIECBAgAABAhECAmGEujIJECBAgAABAgQIECCQQEAgTNAIqkCAAAECBAgQIECAAIEIAYEwQl2ZBAgQIECAAAECBAgQSCAgECZoBFUgQIAAAQIECBAgQIBAhIBAGKGuTAIECBAgQIAAAQIECCQQEAgTNIIqECBAgAABAgQIECBAIEJAIIxQVyYBAgQIECBAgAABAgQSCAiECRpBFQgQIECAAAECBAgQIBAhIBBGqCuTAAECBAgQIECAAAECCQQEwgSNoAoECBAgQIAAAQIECBCIEBAII9SVSYAAAQIECBAgQIAAgQQCAmGCRlAFAgQIECBAgAABAgQIRAgIhBHqyiRAgAABAgQIECBAgEACAYEwQSOoAgECBAgQIECAAAECBCIEBMIIdWUSIECAAAECBAgQIEAggYBAmKARVIEAAQIECBAgQIAAAQIRAgJhhLoyCRAgQIAAAQIECBAgkEBAIEzQCKpAgAABAgQIECBAgACBCAGBMEJdmQQIECBAgAABAgQIEEggIBAmaARVIECAAAECBAgQIECAQISAQBihrkwCBAgQIECAAAECBAgkEBAIEzSCKhAgQIAAAQIECBAgQCBCQCCMUFcmAQIECBAgQIAAAQIEEggIhAkaQRUIECBAgAABAgQIECAQISAQRqgrkwABAgQIECBAgAABAgkEBMIEjaAKBAgQIECAAAECBAgQiBAQCCPUlUmAAAECBAgQIECAAIEEAgJhgkZQBQIECBAgQIAAAQIECEQICIQR6sokQIAAAQIECBAgQIBAAgGBMEEjqAIBAgQIECBAgAABAgQiBATCCHVlEiBAgAABAgQIECBAIIGAQJigEVSBAAECBAgQIECAAAECEQICYYS6MgkQIECAAAECBAgQIJBAQCBM0AiqQIAAAQIECBAgQIAAgQgBgTBCXZkECBAgQIAAAQIECBBIICAQJmgEVSBAgAABAgQIECBAgECEgEAYoa5MAgQIECBAgAABAgQIJBAQCBM0gioQIECAAAECBAgQIEAgQkAgjFBXJgECBAgQIECAAAECBBIICIQJGkEVCBAgQIAAAQIECBAgECEgEEaoK5MAAQIECBAgQIAAAQIJBATCBI2gCgQIECBAgAABAgQIEIgQEAgj1JVJgAABAgQIECBAgACBBAICYYJGUAUCBAgQIECAAAECBAhECAiEEerKJECAAAECBAgQIECAQAIBgTBBI6gCAQIECBAgQIAAAQIEIgQEwgh1ZRIgQIAAAQIECBAgQCCBgECYoBFUgQABAgQIECBAgAABAhECAmGEujIJECBAgAABAgQIECCQQEAgTNAIqkCAAAECBAgQIECAAIEIAYEwQl2ZBAgQIECAAAECBAgQSCAgECZoBFUgQIAAAQIECBAgQIBAhIBAGKGuTAIECBAgQIAAAQIECCQQEAgTNIIqECBAgAABAgQIECBAIEJAIIxQVyYBAgQIECBAgAABAgQSCAiECRpBFQgQIECAAAECBAgQIBAhIBBGqCuTAAECBAgQIECAAAECCQQEwgSNoAoECBAgQIAAAQIECBCIEBAII9SVSYAAAQIECBAgQIAAgQQCAmGCRlAFAgQIECBAgAABAgQIRAgIhBHqyiRAgAABAgQIECBAgEACAYEwQSOoAgECBAgQIECAAAECBCIEBMIIdWUSIECAAAECBAgQIEAggYBAmKARVIEAAQIECBAgQIAAAQIRAgJhhLoyCRAgQIAAAQIECBAgkEBAIEzQCKpAgAABAgQIECBAgACBCAGBMEJdmQQIECBAgAABAgQIEEggIBAmaARVIECAAAECBAgQIECAQISAQBihrkwCBAgQIECAAAECBAgkEBAIEzSCKhAgQIAAAQIECBAgQCBCQCCMUFcmAQIECBAgQIAAAQIEEggIhAkaQRUIECBAgAABAgQIECAQISAQRqgrkwABAgQIECBAgAABAgkEBMIEjaAKBAgQIECAAAECBAgQiBAQCCPUlUmAAAECBAgQIECAAIEEAgJhgkZQBQIECBAgQIAAAQIECEQICIQR6sokQIAAAQIECBAgQIBAAgGBMEEjqAIBAgQIECBAgAABAgQiBATCCHVlEiBAgAABAgQIECBAIIGAQJigEVSBAAECBAgQIECAAAECEQICYYS6MgkQIECAAAECBAgQIJBAQCBM0AiqQIAAAQIECBAgQIAAgQgBgTBCXZkECBAgQIAAAQIECBBIICAQJmgEVSBAgAABAgQIECBAgECEgEAYoa5MAgQIECBAgAABAgQIJBAQCBM0gioQIECAAAECBAgQIEAgQkAgjFBXJgECBAgQIECAAAECBBIICIQJGkEVCBAgQIAAAQIECBAgECEgEEaoK5MAAQIECBAgQIAAAQIJBATCBI2gCgQIECBAgAABAgQIEIgQEAgj1JVJgAABAgQIECBAgACBBAICYYJGUAUCBAgQIECAAAECBAhECAiEEerKJECAAAECBAgQIECAQAIBgTBBI6gCAQIECBAgQIAAAQIEIgQEwgh1ZRIgQIAAAQIECBAgQCCBgECYoBFUgQABAgQIECBAgAABAhECAmGEujIJECBAgAABAgQIECCQQEAgTNAIqkCAAAECBAgQIECAAIEIAYEwQl2ZBAgQIECAAAECBAgQSCAgECZoBFUgQIAAAQIECBAgQIBAhIBAGKGuTAIECBAgQIAAAQIECCQQEAgTNIIqECBAgAABAgQIECBAIEJAIIxQVyYBAgQIECBAgAABAgQSCAiECRpBFQgQIECAAAECBAgQIBAhIBBGqCuTAAECBAgQIECAAAECCQQEwgSNoAoECBAgQIAAAQIECBCIEBAII9SVSYAAAQIECBAgQIAAgQQCAmGCRlAFAgQIECBAgAABAgQIRAgIhBHqyiRAgAABAgQIECBAgEACAYEwQSOoAgECBAgQIECAAAECBCIEBMIIdWUSIECAAAECBAgQIEAggYBAmKARVIEAAQIECBAgQIAAAQIRAgJhhLoyCRAgQIAAAQIECBAgkEBAIEzQCKpAgAABAgQIECBAgACBCAGBMEJdmQQIECBAgAABAgQIEEggIBAmaARVIECAAAECBAgQIECAQISAQBihrkwCBAgQIECAAAECBAgkEBAIEzSCKhAgQIAAAQIECBAgQCBCQCCMUFcmAQIECBAgQIAAAQIEEggIhAkaQRUIECBAgAABAgQIECAQISAQRqgrkwABAgQIECBAgAABAgkEBMIEjaAKBAgQIECAAAECBAgQiBAQCCPUlUmAAAECBAgQIECAAIEEAgJhgkZQBQIECBAgQIAAAQIECEQICIQR6sokQIAAAQIECBAgQIBAAgGBMEEjqAIBAgQIECBAgAABAgQiBATCCHVlEiBAgAABAgQIECBAIIGAQJigEVSBAAECBAgQIECAAAECEQICYYS6MgkQIECAAAECBAgQIJBAQCBM0AiqQIAAAQIECBAgQIAAgQgBgTBCXZkECBAgQIAAAQIECBBIICAQJmgEVSBAgAABAgQIECBAgECEgEAYoa5MAgQIECBAgAABAgQIJBAQCBM0gioQIECAAAECBAgQIEAgQkAgjFBXJgECBAgQIECAAAECBBIICIQJGkEVCBAgQIAAAQIECBAgECEgEEaoK5MAAQIECBAgQIAAAQIJBATCBI2gCgQIECBAgAABAgQIEIgQEAgj1JVJgAABAgQIECBAgACBBAICYYJGUAUCBAgQIECAAAECBAhECAiEEerKJECAAAECBAgQIECAQAIBgTBBI6gCAQIECBAgQIAAAQIEIgQEwgh1ZRIgQIAAAQIECBAgQCCBgECYoBFUgQABAgQIECBAgAABAhECAmGEujIJECBAgAABAgQIECCQQEAgTNAIqkCAAAECBAgQIECAAIEIAYEwQl2ZBAgQIECAAAECBAgQSCAgECZoBFUgQIAAAQIECBAgQIBAhIBAGKGuTAIECBAgQIAAAQIECCQQEAgTNIIqECBAgAABAgQIECBAIEJAIIxQVyYBAgQIECBAgAABAgQSCAiECRpBFQgQIECAAAECBAgQIBAhIBBGqCuTAAECBAgQIECAAAECCQQEwgSNoAoECBAgQIAAAQIECBCIEBAII9SVSYAAAQIECBAgQIAAgQQCAmGCRlAFAgQIECBAgAABAgQIRAgIhBHqyiRAgAABAgQIECBAgEACAYEwQSOoAgECBAgQIECAAAECBCIEBMIIdWUSIECAAAECBAgQIEAggYBAmKARVIEAAQIECBAgQIAAAQIRAgJhhLoyCRAgQIAAAQIECBAgkEBAIEzQCKpAgAABAgQIECBAgACBCAGBMEJdmQQIECBAgAABAgQIEEggIBAmaARVIECAAAECBAgQIECAQISAQBihrkwCBAgQIECAAAECBAgkEBAIEzSCKhAgQIAAAQIECBAgQCBCQCCMUFcmAQIECBAgQIAAAQIEEggIhAkaQRUIECBAgAABAgQIECAQISAQRqgrkwABAgQIECBAgAABAgkEBMIEjaAKBAgQIECAAAECBAgQiBAQCCPUlUmAAAECBAgQIECAAIEEAgJhgkZQBQIECBAgQIAAAQIECEQICIQR6sokQIAAAQIECBAgQIBAAgGBMEEjqAIBAgQIECBAgAABAgQiBATCCHVlEiBAgAABAgQIECBAIIGAQJigEVSBAAECBAgQIECAAAECEQICYYS6MgkQIECAAAECBAgQIJBAQCBM0AiqQIAAAQIECBAgQIAAgQgBgTBCXZkECBAgQIAAAQIECBBIICAQJmgEVSBAgAABAgQIECBAgECEgEAYoa5MAgQIECBAgAABAgQIJBAQCBM0gioQIECAAAECBAgQIEAgQkAgjFBXJgECBAgQIECAAAECBBIICIQJGkEVCBAgQIAAAQIECBAgECEgEEaoK5MAAQIECBAgQIAAAQIJBATCBI2gCgQIECBAgAABAgQIEIgQEAgj1JVJgAABAgQIECBAgACBBAICYYJGUAUCBAgQIECAAAECBAhECAiEEerKJECAAAECBAgQIECAQAIBgTBBI6gCAQIECBAgQIAAAQIEIgQEwgh1ZRIgQIAAAQIECBAgQCCBgECYoBFUgQABAgQIECBAgAABAhECAmGEujIJECBAgAABAgQIECCQQEAgTNAIqkCAAAECBAgQIECAAIEIAYEwQl2ZBAgQIECAAAECBAgQSCAgECZoBFUgQIAAAQIECBAgQIBAhIBAGKGuTAIECBAgQIAAAQIECCQQEAgTNIIqECBAgAABAgQIECBAIEJAIIxQVyYBAgQIECBAgAABAgQSCAiECRpBFQgQIECAAAECBAgQIBAhIBBGqCuTAAECBAgQIECAAAECCQQEwgSNoAoECBAgQIAAAQIECBCIEBAII9SVSYAAAQIECBAgQIAAgQQCAmGCRlAFAgQIECBAgAABAgQIRAgIhBHqyiRAgAABAgQIECBAgEACAYEwQSOoAgECBAgQIECAAAECBCIEBMIIdWUSIECAAAECBAgQIEAggYBAmKARVIEAAQIECBAgQIAAAQIRAgJhhLoyCRAgQIAAAQIECBAgkEBAIEzQCKpAgAABAgQIECBAgACBCAGBMEJdmQQIECBAgAABAgQIEEggIBAmaARVIECAAAECBAgQIECAQISAQBihrkwCBAgQIECAAAECBAgkEBAIEzSCKhAgQIAAAQIECBAgQCBCQCCMUFcmAQIECBAgQIAAAQIEEggIhAkaQRUIECBAgAABAgQIECAQISAQRqgrkwABAgQIECBAgAABAgkEBMIEjaAKBAgQIECAAAECBAgQiBAQCCPUlUmAAAECBAgQIECAAIEEAgJhgkZQBQIECBAgQIAAAQIECEQICIQR6sokQIAAAQIECBAgQIBAAgGBMEEjqAIBAgQIECBAgAABAgQiBATCCHVlEiBAgAABAgQIECBAIIGAQJigEVSBAAECBAgQIECAAAECEQICYYS6MgkQIECAAAECBAgQIJBAQCBM0AiqQIAAAQIECBAgQIAAgQgBgTBCXZkECBAgQIAAAQIECBBIICAQJmgEVSBAgAABAgQIECBAgECEgEAYoa5MAgQIECBAgAABAgQIJBAQCBM0gioQIECAAAECBAgQIEAgQkAgjFBXJgECBAgQIECAAAECBBIICIQJGkEVCBAgQIAAAQIECBAgECEgEEaoK5MAAQIECBAgQIAAAQIJBATCBI2gCgQIECBAgAABAgTY9o/zAAADUElEQVQIEIgQEAgj1JVJgAABAgQIECBAgACBBAICYYJGUAUCBAgQIECAAAECBAhECAiEEerKJECAAAECBAgQIECAQAIBgTBBI6gCAQIECBAgQIAAAQIEIgQEwgh1ZRIgQIAAAQIECBAgQCCBgECYoBFUgQABAgQIECBAgAABAhECAmGEujIJECBAgAABAgQIECCQQEAgTNAIqkCAAAECBAgQIECAAIEIAYEwQl2ZBAgQIECAAAECBAgQSCAgECZoBFUgQIAAAQIECBAgQIBAhIBAGKGuTAIECBAgQIAAAQIECCQQEAgTNIIqECBAgAABAgQIECBAIEJAIIxQVyYBAgQIECBAgAABAgQSCAiECRpBFQgQIECAAAECBAgQIBAhIBBGqCuTAAECBAgQIECAAAECCQQEwgSNoAoECBAgQIAAAQIECBCIEBAII9SVSYAAAQIECBAgQIAAgQQCAmGCRlAFAgQIECBAgAABAgQIRAgIhBHqyiRAgAABAgQIECBAgEACAYEwQSOoAgECBAgQIECAAAECBCIEBMIIdWUSIECAAAECBAgQIEAggYBAmKARVIEAAQIECBAgQIAAAQIRAgJhhLoyCRAgQIAAAQIECBAgkEBAIEzQCKpAgAABAgQIECBAgACBCAGBMEJdmQQIECBAgAABAgQIEEggIBAmaARVIECAAAECBAgQIECAQISAQBihrkwCBAgQIECAAAECBAgkEBAIEzSCKhAgQIAAAQIECBAgQCBCQCCMUFcmAQIECBAgQIAAAQIEEggIhAkaQRUIECBAgAABAgQIECAQISAQRqgrkwABAgQIECBAgAABAgkEBMIEjaAKBAgQIECAAAECBAgQiBAQCCPUlUmAAAECBAgQIECAAIEEAgJhgkZQBQIECBAgQIAAAQIECEQICIQR6sokQIAAAQIECBAgQIBAAgGBMEEjqAIBAgQIECBAgAABAgQiBATCCHVlEiBAgAABAgQIECBAIIGAQJigEVSBAAECBAgQIECAAAECEQICYYS6MgkQIECAAAECBAgQIJBAQCBM0AiqQIAAAQIECBAgQIAAgQgBgTBCXZkECBAgQIAAAQIECBBIICAQJmgEVSBAgAABAgQIECBAgECEwP8B4ZKwHQO2XugAAAAASUVORK5CYII=;clipPath=inset(25.67% 0% 27.67% 0%);" vertex="1" parent="1">
          <mxGeometry x="808.5699999999999" y="245" width="161.43" height="75.33" as="geometry" />
        </mxCell>
        <mxCell id="XVonSXxWwofTlVb_7_li-30" value="" style="swimlane;startSize=0;" vertex="1" parent="1">
          <mxGeometry x="790" y="360" width="130" height="230" as="geometry">
            <mxRectangle x="220" y="360" width="50" height="40" as="alternateBounds" />
          </mxGeometry>
        </mxCell>
        <mxCell id="XVonSXxWwofTlVb_7_li-31" value="Consumer" style="rounded=0;whiteSpace=wrap;html=1;" vertex="1" parent="XVonSXxWwofTlVb_7_li-30">
          <mxGeometry x="15" y="30" width="100" height="35" as="geometry" />
        </mxCell>
        <mxCell id="XVonSXxWwofTlVb_7_li-32" value="Consumer" style="rounded=0;whiteSpace=wrap;html=1;" vertex="1" parent="XVonSXxWwofTlVb_7_li-30">
          <mxGeometry x="15" y="160" width="100" height="35" as="geometry" />
        </mxCell>
        <mxCell id="XVonSXxWwofTlVb_7_li-38" value="Consumer" style="rounded=0;whiteSpace=wrap;html=1;" vertex="1" parent="XVonSXxWwofTlVb_7_li-30">
          <mxGeometry x="15" y="92.5" width="100" height="35" as="geometry" />
        </mxCell>
        <mxCell id="XVonSXxWwofTlVb_7_li-43" value="T" style="swimlane;startSize=0;" vertex="1" parent="1">
          <mxGeometry x="430" y="400" width="280" height="230" as="geometry">
            <mxRectangle x="430" y="400" width="50" height="40" as="alternateBounds" />
          </mxGeometry>
        </mxCell>
        <mxCell id="XVonSXxWwofTlVb_7_li-52" value="Topic B&lt;div&gt;Partition 0&lt;/div&gt;" style="rounded=0;whiteSpace=wrap;html=1;" vertex="1" parent="XVonSXxWwofTlVb_7_li-43">
          <mxGeometry x="20" y="130" width="90" height="40" as="geometry" />
        </mxCell>
        <mxCell id="XVonSXxWwofTlVb_7_li-53" value="Topic B&lt;div&gt;Parititon 1&lt;/div&gt;" style="rounded=0;whiteSpace=wrap;html=1;" vertex="1" parent="XVonSXxWwofTlVb_7_li-43">
          <mxGeometry x="160" y="130" width="90" height="40" as="geometry" />
        </mxCell>
        <mxCell id="XVonSXxWwofTlVb_7_li-50" value="Topic A&lt;div&gt;Partition 0&lt;/div&gt;" style="rounded=0;whiteSpace=wrap;html=1;" vertex="1" parent="XVonSXxWwofTlVb_7_li-43">
          <mxGeometry x="20" y="40" width="90" height="40" as="geometry" />
        </mxCell>
        <mxCell id="XVonSXxWwofTlVb_7_li-51" value="Topic A&lt;div&gt;Partition 1&lt;/div&gt;" style="rounded=0;whiteSpace=wrap;html=1;" vertex="1" parent="XVonSXxWwofTlVb_7_li-43">
          <mxGeometry x="160" y="40" width="90" height="40" as="geometry" />
        </mxCell>
        <mxCell id="XVonSXxWwofTlVb_7_li-65" value="" style="endArrow=classic;html=1;rounded=0;" edge="1" parent="XVonSXxWwofTlVb_7_li-43" target="XVonSXxWwofTlVb_7_li-51">
          <mxGeometry width="50" height="50" relative="1" as="geometry">
            <mxPoint x="110" y="60" as="sourcePoint" />
            <mxPoint x="210" y="115" as="targetPoint" />
          </mxGeometry>
        </mxCell>
        <mxCell id="XVonSXxWwofTlVb_7_li-67" value="" style="endArrow=classic;html=1;rounded=0;entryX=0;entryY=0.5;entryDx=0;entryDy=0;" edge="1" parent="XVonSXxWwofTlVb_7_li-43" target="XVonSXxWwofTlVb_7_li-32">
          <mxGeometry width="50" height="50" relative="1" as="geometry">
            <mxPoint x="250" y="72.5" as="sourcePoint" />
            <mxPoint x="350" y="127.5" as="targetPoint" />
          </mxGeometry>
        </mxCell>
        <mxCell id="XVonSXxWwofTlVb_7_li-74" value="Kafka Broker&amp;nbsp;" style="text;html=1;align=center;verticalAlign=middle;resizable=0;points=[];autosize=1;strokeColor=none;fillColor=none;" vertex="1" parent="XVonSXxWwofTlVb_7_li-43">
          <mxGeometry x="90" y="10" width="100" height="30" as="geometry" />
        </mxCell>
        <mxCell id="XVonSXxWwofTlVb_7_li-75" value="Kafka Broker&amp;nbsp;" style="text;html=1;align=center;verticalAlign=middle;resizable=0;points=[];autosize=1;strokeColor=none;fillColor=none;" vertex="1" parent="XVonSXxWwofTlVb_7_li-43">
          <mxGeometry x="90" y="90" width="100" height="30" as="geometry" />
        </mxCell>
        <mxCell id="XVonSXxWwofTlVb_7_li-83" value="Topic is a&amp;nbsp;&lt;div&gt;named category to group messages&lt;/div&gt;" style="text;whiteSpace=wrap;html=1;" vertex="1" parent="XVonSXxWwofTlVb_7_li-43">
          <mxGeometry x="20" y="170" width="110" height="40" as="geometry" />
        </mxCell>
        <mxCell id="XVonSXxWwofTlVb_7_li-84" value="Partition is a split inside a topic for scalability" style="text;whiteSpace=wrap;html=1;" vertex="1" parent="XVonSXxWwofTlVb_7_li-43">
          <mxGeometry x="160" y="170" width="110" height="40" as="geometry" />
        </mxCell>
        <mxCell id="XVonSXxWwofTlVb_7_li-45" value="Kafka Cluster&lt;div&gt;&lt;br&gt;&lt;/div&gt;" style="text;html=1;align=center;verticalAlign=middle;resizable=0;points=[];autosize=1;strokeColor=none;fillColor=none;" vertex="1" parent="1">
          <mxGeometry x="520" y="360" width="100" height="40" as="geometry" />
        </mxCell>
        <mxCell id="XVonSXxWwofTlVb_7_li-55" style="edgeStyle=orthogonalEdgeStyle;rounded=0;orthogonalLoop=1;jettySize=auto;html=1;exitX=0;exitY=0;exitDx=0;exitDy=0;entryX=-0.008;entryY=0.068;entryDx=0;entryDy=0;entryPerimeter=0;" edge="1" parent="1" source="XVonSXxWwofTlVb_7_li-43" target="XVonSXxWwofTlVb_7_li-43">
          <mxGeometry relative="1" as="geometry" />
        </mxCell>
        <mxCell id="XVonSXxWwofTlVb_7_li-66" value="" style="endArrow=classic;html=1;rounded=0;entryX=0;entryY=0.5;entryDx=0;entryDy=0;" edge="1" parent="1" target="XVonSXxWwofTlVb_7_li-38">
          <mxGeometry width="50" height="50" relative="1" as="geometry">
            <mxPoint x="680" y="461.25" as="sourcePoint" />
            <mxPoint x="780" y="516.25" as="targetPoint" />
          </mxGeometry>
        </mxCell>
        <mxCell id="XVonSXxWwofTlVb_7_li-68" value="" style="endArrow=classic;html=1;rounded=0;entryX=0;entryY=0.5;entryDx=0;entryDy=0;exitX=1;exitY=0.25;exitDx=0;exitDy=0;" edge="1" parent="1" source="XVonSXxWwofTlVb_7_li-51" target="XVonSXxWwofTlVb_7_li-31">
          <mxGeometry width="50" height="50" relative="1" as="geometry">
            <mxPoint x="680" y="461.25" as="sourcePoint" />
            <mxPoint x="780" y="516.25" as="targetPoint" />
          </mxGeometry>
        </mxCell>
        <mxCell id="XVonSXxWwofTlVb_7_li-69" value="" style="endArrow=classic;html=1;rounded=0;entryX=0;entryY=0.5;entryDx=0;entryDy=0;" edge="1" parent="1" target="XVonSXxWwofTlVb_7_li-50">
          <mxGeometry width="50" height="50" relative="1" as="geometry">
            <mxPoint x="330" y="472.5" as="sourcePoint" />
            <mxPoint x="430" y="527.5" as="targetPoint" />
          </mxGeometry>
        </mxCell>
        <mxCell id="XVonSXxWwofTlVb_7_li-70" value="" style="endArrow=classic;html=1;rounded=0;entryX=0;entryY=0.75;entryDx=0;entryDy=0;exitX=1;exitY=0.5;exitDx=0;exitDy=0;" edge="1" parent="1" source="XVonSXxWwofTlVb_7_li-13" target="XVonSXxWwofTlVb_7_li-50">
          <mxGeometry width="50" height="50" relative="1" as="geometry">
            <mxPoint x="370" y="570" as="sourcePoint" />
            <mxPoint x="470" y="625" as="targetPoint" />
          </mxGeometry>
        </mxCell>
        <mxCell id="XVonSXxWwofTlVb_7_li-72" value="" style="endArrow=classic;html=1;rounded=0;" edge="1" parent="1">
          <mxGeometry width="50" height="50" relative="1" as="geometry">
            <mxPoint x="330" y="397.5" as="sourcePoint" />
            <mxPoint x="450" y="450" as="targetPoint" />
          </mxGeometry>
        </mxCell>
        <mxCell id="XVonSXxWwofTlVb_7_li-73" value="" style="endArrow=classic;html=1;rounded=0;exitX=0.393;exitY=1.009;exitDx=0;exitDy=0;exitPerimeter=0;entryX=0.172;entryY=0.167;entryDx=0;entryDy=0;entryPerimeter=0;" edge="1" parent="1" source="XVonSXxWwofTlVb_7_li-17" target="XVonSXxWwofTlVb_7_li-74">
          <mxGeometry width="50" height="50" relative="1" as="geometry">
            <mxPoint x="450" y="190" as="sourcePoint" />
            <mxPoint x="460" y="190" as="targetPoint" />
          </mxGeometry>
        </mxCell>
        <mxCell id="XVonSXxWwofTlVb_7_li-77" value="" style="endArrow=classic;html=1;rounded=0;exitX=0.565;exitY=1.028;exitDx=0;exitDy=0;exitPerimeter=0;" edge="1" parent="1" source="XVonSXxWwofTlVb_7_li-17" target="XVonSXxWwofTlVb_7_li-75">
          <mxGeometry width="50" height="50" relative="1" as="geometry">
            <mxPoint x="650" y="180" as="sourcePoint" />
            <mxPoint x="685" y="434" as="targetPoint" />
          </mxGeometry>
        </mxCell>
        <mxCell id="XVonSXxWwofTlVb_7_li-78" value="" style="endArrow=classic;html=1;rounded=0;exitX=1;exitY=0.5;exitDx=0;exitDy=0;" edge="1" parent="1" source="XVonSXxWwofTlVb_7_li-30">
          <mxGeometry width="50" height="50" relative="1" as="geometry">
            <mxPoint x="1040" y="500" as="sourcePoint" />
            <mxPoint x="1090" y="475" as="targetPoint" />
          </mxGeometry>
        </mxCell>
        <mxCell id="XVonSXxWwofTlVb_7_li-80" value="&lt;font style=&quot;font-size: 20px;&quot;&gt;Data Ingestion or Extraction&lt;/font&gt;" style="text;html=1;align=center;verticalAlign=middle;resizable=0;points=[];autosize=1;strokeColor=none;fillColor=none;" vertex="1" parent="1">
          <mxGeometry x="420" y="683" width="270" height="40" as="geometry" />
        </mxCell>
        <mxCell id="XVonSXxWwofTlVb_7_li-81" value="Sends (publishes) data to Kafka" style="text;whiteSpace=wrap;html=1;" vertex="1" parent="1">
          <mxGeometry x="220" y="587.5" width="145" height="40" as="geometry" />
        </mxCell>
        <mxCell id="XVonSXxWwofTlVb_7_li-82" value="Reads (subscribes to) data from Kafka" style="text;whiteSpace=wrap;html=1;" vertex="1" parent="1">
          <mxGeometry x="794.28" y="587.5" width="120" height="40" as="geometry" />
        </mxCell>
        <mxCell id="XVonSXxWwofTlVb_7_li-85" value="A Kafka server that stores data" style="text;whiteSpace=wrap;html=1;fontSize=16;" vertex="1" parent="1">
          <mxGeometry x="694.28" y="250" width="100" height="40" as="geometry" />
        </mxCell>
        <mxCell id="XVonSXxWwofTlVb_7_li-87" value="" style="endArrow=classic;html=1;rounded=0;entryX=0.8;entryY=0;entryDx=0;entryDy=0;entryPerimeter=0;exitX=0;exitY=0.75;exitDx=0;exitDy=0;" edge="1" parent="1" source="XVonSXxWwofTlVb_7_li-85" target="XVonSXxWwofTlVb_7_li-74">
          <mxGeometry width="50" height="50" relative="1" as="geometry">
            <mxPoint x="620" y="320" as="sourcePoint" />
            <mxPoint x="740" y="372.5" as="targetPoint" />
          </mxGeometry>
        </mxCell>
        <mxCell id="XVonSXxWwofTlVb_7_li-88" value="" style="edgeStyle=orthogonalEdgeStyle;rounded=0;orthogonalLoop=1;jettySize=auto;html=1;" edge="1" parent="1" source="XVonSXxWwofTlVb_7_li-51" target="XVonSXxWwofTlVb_7_li-45">
          <mxGeometry relative="1" as="geometry" />
        </mxCell>
        <mxCell id="XVonSXxWwofTlVb_7_li-89" value="Manages and tracks &lt;strong data-start=&quot;1368&quot; data-end=&quot;1385&quot;&gt;Kafka brokers&lt;/strong&gt;" style="text;whiteSpace=wrap;html=1;" vertex="1" parent="1">
          <mxGeometry x="474.28" y="130" width="220" height="40" as="geometry" />
        </mxCell>
        <mxCell id="XVonSXxWwofTlVb_7_li-91" value="" style="endArrow=classic;html=1;rounded=0;labelBackgroundColor=light-dark(default, #cb2a2a);" edge="1" parent="1" target="XVonSXxWwofTlVb_7_li-90">
          <mxGeometry width="50" height="50" relative="1" as="geometry">
            <mxPoint x="-15" y="478" as="sourcePoint" />
            <mxPoint x="185" y="477.5" as="targetPoint" />
            <Array as="points" />
          </mxGeometry>
        </mxCell>
        <mxCell id="XVonSXxWwofTlVb_7_li-90" value="Gives news in Huge amounts" style="text;html=1;align=center;verticalAlign=middle;resizable=0;points=[];autosize=1;strokeColor=none;fillColor=none;" vertex="1" parent="1">
          <mxGeometry x="-20" y="350" width="180" height="30" as="geometry" />
        </mxCell>
        <mxCell id="XVonSXxWwofTlVb_7_li-92" style="edgeStyle=orthogonalEdgeStyle;rounded=0;orthogonalLoop=1;jettySize=auto;html=1;exitX=0.75;exitY=0;exitDx=0;exitDy=0;entryX=0.897;entryY=-0.014;entryDx=0;entryDy=0;entryPerimeter=0;" edge="1" parent="1" source="XVonSXxWwofTlVb_7_li-89" target="XVonSXxWwofTlVb_7_li-89">
          <mxGeometry relative="1" as="geometry" />
        </mxCell>
        <mxCell id="XVonSXxWwofTlVb_7_li-93" value="" style="swimlane;startSize=0;" vertex="1" parent="1">
          <mxGeometry x="1090" y="250" width="270" height="500" as="geometry" />
        </mxCell>
      </root>
    </mxGraphModel>
  </diagram>
</mxfile>
